<svg aria-hidden="true" style="width:0;height:0;position:absolute;overflow:hidden" xmlns="http://www.w3.org/2000/svg"><defs><symbol id="icon-Copy" viewBox="0 0 495 32"><path fill="#f5f0ec" style="fill:var(--color1,#f5f0ec)" d="M1.007 29.538V.895h9.678c2.247 0 4.084.406 5.511 1.217 1.436.802 2.499 1.888 3.189 3.259s1.035 2.9 1.035 4.587c0 1.688-.345 3.221-1.035 4.601-.681 1.38-1.734 2.48-3.161 3.301-1.427.811-3.254 1.217-5.482 1.217H3.805V16h6.825c1.538 0 2.774-.266 3.706-.797s1.608-1.249 2.028-2.154c.429-.914.643-1.944.643-3.091s-.214-2.172-.643-3.077c-.42-.904-1.1-1.613-2.042-2.126-.942-.522-2.191-.783-3.748-.783H4.476v25.566H1.007zm24.159 0V8.055h3.189V11.3h.224c.392-1.063 1.1-1.925 2.126-2.587s2.182-.993 3.469-.993c.242 0 .545.005.909.014s.639.023.825.042v3.357a9.779 9.779 0 0 0-.769-.126 7.608 7.608 0 0 0-1.245-.098c-1.044 0-1.977.219-2.797.657a4.96 4.96 0 0 0-1.93 1.79c-.466.755-.699 1.618-.699 2.587v13.594h-3.301zm20.581.504c-1.361 0-2.597-.256-3.706-.769-1.109-.522-1.991-1.273-2.643-2.252-.653-.988-.979-2.182-.979-3.58 0-1.231.242-2.228.727-2.993.485-.774 1.133-1.38 1.944-1.818s1.706-.765 2.685-.979a32.385 32.385 0 0 1 2.979-.531c1.305-.168 2.364-.294 3.175-.378.82-.093 1.417-.247 1.79-.462.382-.214.573-.587.573-1.119v-.112c0-1.38-.378-2.452-1.133-3.217-.746-.765-1.879-1.147-3.399-1.147-1.576 0-2.811.345-3.706 1.035s-1.524 1.427-1.888 2.21l-3.133-1.119c.559-1.305 1.305-2.322 2.238-3.049a8.385 8.385 0 0 1 3.077-1.538 12.792 12.792 0 0 1 3.301-.448c.69 0 1.482.084 2.378.252a7.63 7.63 0 0 1 2.615.993c.849.504 1.552 1.263 2.112 2.28s.839 2.378.839 4.084v14.154h-3.301V26.63h-.168c-.224.466-.597.965-1.119 1.496s-1.217.984-2.084 1.357-1.925.559-3.175.559zm.504-2.965c1.305 0 2.405-.256 3.301-.769.904-.513 1.585-1.175 2.042-1.986a5.061 5.061 0 0 0 .699-2.559v-3.021c-.14.168-.447.322-.923.462-.466.131-1.007.247-1.622.35a77.22 77.22 0 0 1-1.776.252c-.569.065-1.03.121-1.385.168a12.65 12.65 0 0 0-2.405.545c-.737.242-1.333.611-1.79 1.105-.447.485-.671 1.147-.671 1.986 0 1.147.424 2.014 1.273 2.601.858.578 1.944.867 3.259.867zm19.84 2.461L59.546 8.055h3.468l4.643 16.448h.224l4.588-16.448h3.524l4.531 16.392h.224l4.643-16.392h3.468l-6.545 21.483h-3.245L74.37 13.035h-.336l-4.699 16.503H66.09zm33.061.504c-1.361 0-2.597-.256-3.706-.769-1.11-.522-1.991-1.273-2.643-2.252-.653-.988-.979-2.182-.979-3.58 0-1.231.242-2.228.727-2.993.485-.774 1.133-1.38 1.944-1.818s1.706-.765 2.685-.979a32.385 32.385 0 0 1 2.979-.531c1.305-.168 2.364-.294 3.175-.378.821-.093 1.417-.247 1.79-.462.382-.214.573-.587.573-1.119v-.112c0-1.38-.378-2.452-1.133-3.217-.746-.765-1.879-1.147-3.399-1.147-1.576 0-2.811.345-3.706 1.035s-1.525 1.427-1.888 2.21l-3.133-1.119c.559-1.305 1.305-2.322 2.238-3.049a8.378 8.378 0 0 1 3.077-1.538 12.792 12.792 0 0 1 3.301-.448c.69 0 1.483.084 2.378.252a7.63 7.63 0 0 1 2.615.993c.849.504 1.552 1.263 2.112 2.28s.839 2.378.839 4.084v14.154h-3.301V26.63h-.168c-.224.466-.597.965-1.119 1.496s-1.217.984-2.084 1.357-1.925.559-3.175.559zm.503-2.965c1.305 0 2.406-.256 3.301-.769.904-.513 1.585-1.175 2.042-1.986a5.061 5.061 0 0 0 .699-2.559v-3.021c-.14.168-.448.322-.923.462-.466.131-1.007.247-1.622.35a77.22 77.22 0 0 1-1.776.252c-.569.065-1.03.121-1.385.168-.858.112-1.66.294-2.406.545-.737.242-1.333.611-1.79 1.105-.448.485-.671 1.147-.671 1.986 0 1.147.424 2.014 1.273 2.601.858.578 1.944.867 3.259.867zm25.041 2.461v-2.517l12.196-15.664v-.224h-11.804V8.056h16.056v2.629l-11.86 15.552v.224h12.252v3.077h-16.839zm27.851.504c-1.361 0-2.597-.256-3.706-.769-1.109-.522-1.991-1.273-2.643-2.252-.653-.988-.979-2.182-.979-3.58 0-1.231.242-2.228.727-2.993.485-.774 1.133-1.38 1.944-1.818s1.706-.765 2.685-.979a32.385 32.385 0 0 1 2.979-.531c1.305-.168 2.364-.294 3.175-.378.82-.093 1.417-.247 1.79-.462.382-.214.573-.587.573-1.119v-.112c0-1.38-.378-2.452-1.133-3.217-.746-.765-1.879-1.147-3.399-1.147-1.576 0-2.811.345-3.706 1.035s-1.524 1.427-1.888 2.21l-3.133-1.119c.559-1.305 1.305-2.322 2.238-3.049a8.385 8.385 0 0 1 3.077-1.538 12.792 12.792 0 0 1 3.301-.448c.69 0 1.482.084 2.378.252a7.63 7.63 0 0 1 2.615.993c.849.504 1.552 1.263 2.112 2.28s.839 2.378.839 4.084v14.154h-3.301V26.63h-.168c-.224.466-.597.965-1.119 1.496s-1.217.984-2.084 1.357-1.925.559-3.175.559zm.504-2.965c1.305 0 2.405-.256 3.301-.769.904-.513 1.585-1.175 2.042-1.986a5.061 5.061 0 0 0 .699-2.559v-3.021c-.14.168-.447.322-.923.462-.466.131-1.007.247-1.622.35a77.22 77.22 0 0 1-1.776.252c-.569.065-1.03.121-1.385.168a12.65 12.65 0 0 0-2.405.545c-.737.242-1.333.611-1.79 1.105-.447.485-.671 1.147-.671 1.986 0 1.147.424 2.014 1.273 2.601.858.578 1.944.867 3.259.867zm30.19-14.21-2.965.839a5.53 5.53 0 0 0-.825-1.441c-.354-.476-.839-.867-1.455-1.175s-1.403-.462-2.364-.462c-1.315 0-2.41.303-3.287.909-.867.597-1.301 1.357-1.301 2.28 0 .82.299 1.469.895 1.944s1.529.872 2.797 1.189l3.189.783c1.921.466 3.352 1.179 4.294 2.14.942.951 1.413 2.177 1.413 3.678 0 1.231-.354 2.331-1.063 3.301-.699.97-1.679 1.734-2.937 2.294s-2.723.839-4.392.839c-2.191 0-4.005-.476-5.441-1.426s-2.345-2.34-2.727-4.168l3.133-.783c.298 1.156.863 2.023 1.692 2.601.839.578 1.935.867 3.287.867 1.538 0 2.76-.326 3.664-.979.914-.662 1.371-1.455 1.371-2.378 0-.746-.261-1.371-.783-1.874-.522-.513-1.324-.895-2.405-1.147l-3.581-.839c-1.967-.466-3.412-1.189-4.335-2.168-.914-.988-1.371-2.224-1.371-3.706 0-1.212.34-2.284 1.021-3.217.69-.932 1.627-1.664 2.811-2.196 1.193-.531 2.545-.797 4.056-.797 2.126 0 3.795.466 5.007 1.399 1.221.932 2.089 2.163 2.601 3.692zm14.309-4.811v2.797h-11.133V8.056h11.133zm-7.888-5.147h3.301v20.476c0 .932.135 1.632.405 2.098.28.457.634.765 1.063.923.438.149.9.224 1.385.224.364 0 .662-.019.895-.056l.56-.112.671 2.965a6.717 6.717 0 0 1-.937.252c-.401.093-.909.14-1.524.14-.932 0-1.846-.2-2.741-.601a5.452 5.452 0 0 1-2.21-1.832c-.578-.82-.867-1.855-.867-3.105V2.91zm12.459 26.629V8.055h3.189V11.3h.224c.392-1.063 1.1-1.925 2.126-2.587s2.182-.993 3.469-.993c.242 0 .545.005.909.014s.639.023.825.042v3.357a9.779 9.779 0 0 0-.769-.126 7.608 7.608 0 0 0-1.245-.098c-1.044 0-1.977.219-2.797.657a4.96 4.96 0 0 0-1.93 1.79c-.466.755-.699 1.618-.699 2.587v13.594h-3.301zm13.645 0v-2.517l12.196-15.664v-.224h-11.804V8.056h16.056v2.629l-11.86 15.552v.224h12.252v3.077h-16.839zm29.92.448c-2.07 0-3.856-.457-5.357-1.371-1.492-.923-2.643-2.21-3.455-3.86-.802-1.66-1.203-3.59-1.203-5.79s.401-4.14 1.203-5.818c.811-1.688 1.939-3.002 3.385-3.944 1.455-.951 3.151-1.427 5.091-1.427 1.118 0 2.223.186 3.314.559 1.093.373 2.085.979 2.981 1.818.894.83 1.607 1.93 2.139 3.301s.798 3.058.798 5.063v1.399h-16.56v-2.853h13.202c0-1.212-.241-2.294-.726-3.245a5.498 5.498 0 0 0-2.043-2.252c-.876-.55-1.91-.825-3.105-.825-1.315 0-2.452.326-3.413.979-.951.643-1.683 1.483-2.196 2.518s-.769 2.145-.769 3.329v1.902c0 1.622.28 2.998.839 4.126.569 1.119 1.357 1.972 2.364 2.559 1.007.578 2.177.867 3.51.867.866 0 1.651-.121 2.351-.364a5.02 5.02 0 0 0 1.831-1.119c.512-.503.908-1.128 1.189-1.874l3.188.895a7.048 7.048 0 0 1-1.691 2.853c-.793.811-1.772 1.445-2.937 1.902-1.167.448-2.476.671-3.931.671zm12.908-.448v-2.517l12.194-15.664v-.224h-11.803V8.056h16.054v2.629l-11.86 15.552v.224h12.251v3.077h-16.837zm8.222-25.062a2.352 2.352 0 0 1-1.664-.657c-.455-.438-.684-.965-.684-1.58s.229-1.142.684-1.58a2.352 2.352 0 0 1 1.664-.657c.645 0 1.194.219 1.652.657.465.438.699.965.699 1.58s-.234 1.142-.699 1.58a2.302 2.302 0 0 1-1.652.657zm21.418 25.51c-1.94 0-3.641-.462-5.105-1.385-1.455-.923-2.592-2.214-3.412-3.874-.812-1.66-1.216-3.599-1.216-5.818 0-2.238.404-4.191 1.216-5.86.82-1.669 1.957-2.965 3.412-3.888 1.465-.923 3.166-1.385 5.105-1.385s3.638.462 5.09 1.385c1.465.923 2.602 2.219 3.414 3.888.82 1.669 1.231 3.622 1.231 5.86 0 2.219-.411 4.159-1.231 5.818-.812 1.66-1.95 2.951-3.414 3.874-1.452.923-3.151 1.385-5.09 1.385zm0-2.965c1.474 0 2.686-.378 3.638-1.133.95-.755 1.654-1.748 2.11-2.979.458-1.231.687-2.564.687-4s-.229-2.774-.687-4.014c-.455-1.24-1.159-2.242-2.11-3.007-.953-.765-2.164-1.147-3.638-1.147-1.472 0-2.686.382-3.636 1.147s-1.654 1.767-2.112 3.007c-.458 1.24-.684 2.578-.684 4.014s.226 2.769.684 4c.458 1.231 1.162 2.224 2.112 2.979s2.164 1.133 3.636 1.133zm17.681-10.406v12.923h-3.301V8.055h3.188v3.357h.281a6.122 6.122 0 0 1 2.294-2.629c1.024-.671 2.348-1.007 3.97-1.007 1.455 0 2.727.298 3.818.895 1.093.587 1.94 1.482 2.545 2.685.608 1.193.911 2.704.911 4.531v13.65h-3.301V16.11c0-1.688-.438-3.002-1.314-3.944-.876-.951-2.08-1.427-3.609-1.427-1.054 0-1.996.228-2.826.685-.82.457-1.467 1.124-1.945 2-.475.876-.711 1.939-.711 3.189zm28.35 13.371c-2.07 0-3.855-.457-5.356-1.371-1.492-.923-2.644-2.21-3.454-3.86-.802-1.66-1.204-3.59-1.204-5.79s.401-4.14 1.204-5.818c.81-1.688 1.937-3.002 3.385-3.944 1.452-.951 3.151-1.427 5.09-1.427 1.118 0 2.223.186 3.313.559 1.093.373 2.085.979 2.981 1.818.894.83 1.607 1.93 2.139 3.301s.798 3.058.798 5.063v1.399H326.6v-2.853h13.204c0-1.212-.241-2.294-.726-3.245a5.498 5.498 0 0 0-2.043-2.252c-.876-.55-1.91-.825-3.104-.825-1.314 0-2.452.326-3.414.979a6.465 6.465 0 0 0-2.196 2.518 7.407 7.407 0 0 0-.768 3.329v1.902c0 1.622.278 2.998.839 4.126.569 1.119 1.356 1.972 2.363 2.559 1.007.578 2.176.867 3.51.867.866 0 1.652-.121 2.351-.364a5.02 5.02 0 0 0 1.831-1.119c.512-.503.908-1.128 1.189-1.874l3.188.895a7.048 7.048 0 0 1-1.691 2.853c-.793.811-1.772 1.445-2.937 1.902-1.167.448-2.476.671-3.931.671zm31.03-14.769c0-1.529.374-2.923 1.12-4.182s1.748-2.261 3.006-3.007c1.26-.746 2.654-1.119 4.182-1.119 1.324 0 2.545.284 3.665.853a7.83 7.83 0 0 1 2.796 2.336 7.126 7.126 0 0 1 1.371 3.329h-3.385c-.187-.96-.704-1.744-1.553-2.35-.847-.615-1.812-.923-2.895-.923-.933 0-1.78.228-2.545.685a5.224 5.224 0 0 0-1.831 1.832c-.458.765-.687 1.613-.687 2.545s.229 1.781.687 2.545a5.216 5.216 0 0 0 1.831 1.832 4.867 4.867 0 0 0 2.545.685c1.083 0 1.996-.303 2.742-.909a3.972 3.972 0 0 0 1.425-2.364h3.385a7.642 7.642 0 0 1-1.3 3.343 7.417 7.417 0 0 1-2.658 2.322c-1.071.569-2.27.853-3.594.853-1.529 0-2.922-.373-4.182-1.119-1.258-.746-2.26-1.748-3.006-3.007s-1.12-2.653-1.12-4.182zm8.167 14.769c-2.031 0-3.943-.382-5.733-1.147a15.048 15.048 0 0 1-4.714-3.175 15.247 15.247 0 0 1-3.188-4.713c-.766-1.781-1.142-3.692-1.135-5.734.01-2.042.396-3.953 1.162-5.734a15.063 15.063 0 0 1 3.188-4.699 14.795 14.795 0 0 1 4.702-3.189c1.78-.765 3.687-1.147 5.718-1.147 2.043 0 3.953.382 5.735 1.147a14.548 14.548 0 0 1 4.699 3.189 14.908 14.908 0 0 1 3.175 4.699c.763 1.781 1.152 3.692 1.159 5.734.01 2.042-.367 3.953-1.132 5.734a14.843 14.843 0 0 1-7.886 7.888c-1.792.765-3.707 1.147-5.75 1.147zm0-3.245c1.595 0 3.092-.298 4.49-.895a11.587 11.587 0 0 0 6.154-6.14c.598-1.399.891-2.89.881-4.476-.01-1.594-.313-3.091-.908-4.489s-1.423-2.625-2.476-3.678a11.614 11.614 0 0 0-3.663-2.476c-1.391-.597-2.882-.895-4.478-.895-1.585 0-3.072.298-4.46.895s-2.612 1.427-3.665 2.489a11.766 11.766 0 0 0-2.489 3.678c-.596 1.389-.901 2.881-.908 4.476-.01 1.576.283 3.063.881 4.462a11.585 11.585 0 0 0 2.474 3.664 11.961 11.961 0 0 0 3.68 2.489c1.398.597 2.895.895 4.487.895zm31.279 2.797v-2.517l9.455-10.35a66.09 66.09 0 0 0 2.742-3.161c.719-.904 1.25-1.753 1.595-2.545a6.17 6.17 0 0 0 .532-2.518c0-1.007-.244-1.879-.729-2.615-.475-.737-1.127-1.305-1.957-1.706s-1.762-.601-2.799-.601c-1.1 0-2.06.228-2.88.685a4.72 4.72 0 0 0-1.888 1.888c-.438.811-.657 1.762-.657 2.853h-3.301c0-1.678.386-3.152 1.159-4.42a8.077 8.077 0 0 1 3.163-2.965c1.342-.709 2.848-1.063 4.517-1.063 1.679 0 3.166.354 4.46 1.063 1.297.709 2.314 1.664 3.05 2.867s1.105 2.541 1.105 4.014a8.648 8.648 0 0 1-.574 3.091c-.374.998-1.026 2.112-1.959 3.343-.923 1.221-2.203 2.713-3.845 4.476l-6.434 6.881v.224h13.314v3.077h-18.07zm32.795.392c-2.107 0-3.902-.574-5.383-1.72-1.482-1.156-2.617-2.83-3.399-5.021-.783-2.2-1.174-4.858-1.174-7.972 0-3.096.391-5.739 1.174-7.93.793-2.2 1.93-3.879 3.414-5.035 1.492-1.165 3.281-1.748 5.369-1.748 2.09 0 3.874.583 5.359 1.748 1.492 1.156 2.629 2.834 3.412 5.035.793 2.191 1.189 4.835 1.189 7.93 0 3.114-.391 5.772-1.174 7.972-.785 2.191-1.918 3.865-3.399 5.021-1.482 1.147-3.279 1.72-5.386 1.72zm0-3.077c2.09 0 3.712-1.007 4.869-3.021 1.154-2.014 1.733-4.886 1.733-8.615 0-2.48-.266-4.592-.798-6.336-.522-1.744-1.278-3.072-2.265-3.986-.98-.914-2.159-1.371-3.54-1.371-2.07 0-3.687 1.021-4.852 3.063-1.167 2.033-1.748 4.909-1.748 8.629 0 2.48.261 4.587.783 6.322s1.273 3.054 2.252 3.958c.987.904 2.176 1.357 3.564 1.357zm14.88 2.685v-2.517l9.455-10.35a64.797 64.797 0 0 0 2.74-3.161c.719-.904 1.25-1.753 1.595-2.545a6.17 6.17 0 0 0 .532-2.518c0-1.007-.241-1.879-.726-2.615-.478-.737-1.13-1.305-1.959-1.706s-1.762-.601-2.796-.601c-1.1 0-2.06.228-2.882.685a4.732 4.732 0 0 0-1.888 1.888c-.438.811-.657 1.762-.657 2.853h-3.301c0-1.678.389-3.152 1.162-4.42s1.826-2.256 3.161-2.965C458.196.857 459.7.503 461.369.503c1.679 0 3.166.354 4.463 1.063 1.295.709 2.311 1.664 3.047 2.867.738 1.203 1.105 2.541 1.105 4.014 0 1.054-.19 2.084-.574 3.091-.372.998-1.024 2.112-1.957 3.343-.923 1.221-2.206 2.713-3.847 4.476l-6.432 6.881v.224h13.314v3.077h-18.07zm23.451 0v-2.517l9.455-10.35a66.09 66.09 0 0 0 2.742-3.161c.719-.904 1.25-1.753 1.595-2.545a6.17 6.17 0 0 0 .532-2.518c0-1.007-.244-1.879-.729-2.615-.475-.737-1.127-1.305-1.957-1.706s-1.762-.601-2.799-.601c-1.1 0-2.06.228-2.88.685a4.72 4.72 0 0 0-1.888 1.888c-.438.811-.657 1.762-.657 2.853h-3.301c0-1.678.386-3.152 1.159-4.42a8.077 8.077 0 0 1 3.163-2.965c1.342-.709 2.848-1.063 4.517-1.063 1.679 0 3.166.354 4.46 1.063 1.297.709 2.314 1.664 3.05 2.867s1.105 2.541 1.105 4.014a8.648 8.648 0 0 1-.574 3.091c-.374.998-1.026 2.112-1.959 3.343-.923 1.221-2.203 2.713-3.845 4.476l-6.434 6.881v.224h13.314v3.077h-18.07z"/></symbol><symbol id="icon-logo-full-light" viewBox="0 0 151 32"><path fill="#003edc" style="fill:var(--color2,#003edc)" d="M14.166 6.303a10.069 10.069 0 0 1 3.474.619c2.081.769 3.846 2.2 5.038 4.046a11.845 11.845 0 0 0-6.03-8.87A11.545 11.545 0 0 0 11.067.667c-1.705 0-4.355.363-5.816 1.024-2.188.8-3.619 2.101-5.252 3.575l6.765 4.275a10.047 10.047 0 0 1 7.401-3.237z"/><path fill="#003edc" style="fill:var(--color2,#003edc)" d="M21.289 15.941h-.004c-.205.017-.41.03-.611.039h-.051a10.1 10.1 0 0 1-7.893-3.488 10.209 10.209 0 0 1-2.149-4.007 10.229 10.229 0 0 0-3.051 2.248 10.241 10.241 0 0 0-2.487 4.669l-.205 1.167-.816 4.677-.192 1.089.709-.614 1.192-1.037-.192-2.611a5.006 5.006 0 0 1-.064-.808v-.026l6.914.156c-1.124.519-3.107 2.265-3.88 3.086l-.009.013c-.175.186-.342.376-.504.575l-.59 2.395-.068.277h.004l-.167.674-.03.125-1.671 6.795 6.303-3.411.06-.315.239-1.271a4.74 4.74 0 0 1 .077-.315 10.706 10.706 0 0 1 .363-1.119c1.44-3.791 3.248-4.655 3.128-4.655.094-.078.197-.151.299-.22.876-.618 2.021-1.063 3.261-1.236.188-.026.402-.048.624-.052l.06-.004 1.141-1.284 1.508-1.703-.081.017a9.794 9.794 0 0 1-1.167.177z"/><path fill="#f5f0ec" style="fill:var(--color1,#f5f0ec)" d="M94.571 19.187a4.049 4.049 0 0 0-1.791-1.141c-.709-.225-1.632-.45-2.791-.67a22.27 22.27 0 0 1-2.213-.493c-.538-.16-.991-.402-1.35-.743-.359-.346-.538-.791-.538-1.344 0-.726.316-1.31.961-1.759.633-.445 1.577-.674 2.833-.674 1.654 0 3.09.415 4.286 1.262l.859-1.599c-.615-.406-1.385-.735-2.32-.99a10.684 10.684 0 0 0-2.825-.389c-1.816 0-3.226.398-4.239 1.184-1.013.778-1.513 1.794-1.513 3.017 0 .99.252 1.768.756 2.325a4.144 4.144 0 0 0 1.833 1.193c.727.233 1.675.458 2.859.683.885.151 1.59.298 2.124.458.543.16.983.393 1.329.7.35.311.526.739.526 1.271 0 .769-.316 1.366-.953 1.781s-1.615.627-2.944.627c-1 0-1.961-.147-2.876-.458-.927-.311-1.684-.7-2.295-1.193l-.889 1.569c.611.523 1.457.96 2.53 1.301 1.077.35 2.214.523 3.393.523 1.876 0 3.35-.389 4.41-1.133 1.06-.756 1.59-1.777 1.59-3.069 0-.947-.244-1.694-.752-2.239zM139.611 21.698l1.467 1.011a5.599 5.599 0 0 1-2.351 2.165c-1 .501-2.12.748-3.351.748-1.444 0-2.73-.32-3.859-.951a6.928 6.928 0 0 1-2.675-2.676c-.645-1.15-.97-2.442-.97-3.881 0-1.426.325-2.719.97-3.855a6.882 6.882 0 0 1 2.675-2.658c1.128-.635 2.415-.955 3.859-.955 1.252 0 2.372.255 3.364.743a5.598 5.598 0 0 1 2.337 2.166l-1.467 1.011a4.762 4.762 0 0 0-1.833-1.643 5.35 5.35 0 0 0-2.401-.54c-1.055 0-2.004.233-2.833.713-.846.48-1.5 1.15-1.974 2.023-.462.886-.692 1.876-.692 2.995 0 1.141.231 2.144.692 3.017a5.06 5.06 0 0 0 1.974 2.014c.829.471 1.778.718 2.833.718.864 0 1.667-.181 2.401-.536a4.55 4.55 0 0 0 1.833-1.629zM149.964 23.211a2.713 2.713 0 0 1-.979.553 3.29 3.29 0 0 1-1.179.203c-.816 0-1.436-.238-1.868-.691-.431-.45-.653-1.12-.653-1.997v-8.783h4.427v-1.681h-4.427v-3.22h-1.957v13.793c0 1.361.368 2.421 1.103 3.164.739.752 1.791 1.124 3.153 1.124.591 0 1.159-.087 1.705-.268.539-.182 1-.437 1.372-.765l-.697-1.431zM34.983 21.267c-.235.635-.611 1.124-1.167 1.457-.543.328-1.167.488-1.867.488-.722 0-1.286-.147-1.697-.463a1.518 1.518 0 0 1-.624-1.271c0-1.115.842-1.677 2.53-1.677h2.825v1.465zm2.337-8.432c-1.175-1.059-2.863-1.595-5.06-1.595a12.36 12.36 0 0 0-3.333.454c-1.077.307-2.013.735-2.782 1.284l1.474 2.905c.513-.406 1.137-.731 1.867-.977a7.23 7.23 0 0 1 2.222-.354c1.094 0 1.906.242 2.444.73.555.488.829 1.189.829 2.092h-3.273c-2.068 0-3.607.389-4.602 1.145-.996.765-1.487 1.824-1.487 3.155 0 .83.209 1.582.637 2.23.419.661 1.03 1.18 1.825 1.556.803.363 1.748.558 2.846.558 2.107 0 3.543-.67 4.312-2.001v1.789h3.85v-8.191c0-2.131-.586-3.726-1.769-4.78zM60.42 17.567h-5.158V7.742h5.158c1.919 0 3.385.424 4.393 1.279 1.013.843 1.517 2.053 1.517 3.644 0 1.556-.504 2.753-1.517 3.618-1.008.851-2.474 1.284-4.393 1.284zm-10.059 3.947c-.684.718-1.547 1.085-2.581 1.085-1.055 0-1.923-.367-2.607-1.085-.697-.713-1.038-1.673-1.038-2.887 0-1.206.342-2.17 1.038-2.892.684-.722 1.551-1.085 2.607-1.085 1.034 0 1.897.363 2.581 1.085s1.021 1.686 1.021 2.892c0 1.215-.337 2.174-1.021 2.887zm13.602-2.684c1.41-.467 2.504-1.228 3.273-2.282.761-1.059 1.15-2.343 1.15-3.881 0-2.088-.705-3.73-2.107-4.923-1.406-1.193-3.342-1.79-5.807-1.79l-9.166.065v6.955c-1.017-1.158-2.431-1.738-4.239-1.738-1.337 0-2.551.307-3.624.916-1.085.597-1.927 1.457-2.551 2.581-.615 1.124-.915 2.416-.915 3.894 0 1.474.299 2.775.915 3.89.624 1.12 1.466 1.984 2.551 2.585 1.073.609 2.286.912 3.624.912 1.927 0 3.406-.618 4.427-1.867v1.655h3.927v-6.475h5.051c.539 0 1.051-.026 1.551-.082l4.423 6.298h2.248l-4.73-6.713zM71.232 17.259c.128-1.465.662-2.632 1.624-3.544.944-.903 2.115-1.353 3.517-1.353 1.423 0 2.602.45 3.564 1.353.949.912 1.487 2.079 1.611 3.544H71.232zm12.205.86c0-1.448-.308-2.74-.919-3.864-.611-1.132-1.444-2.019-2.517-2.645-1.068-.644-2.274-.964-3.628-.964-1.346 0-2.555.32-3.632.964a6.643 6.643 0 0 0-2.543 2.654c-.62 1.141-.927 2.429-.927 3.856 0 1.439.316 2.732.97 3.873a6.929 6.929 0 0 0 2.688 2.663c1.158.653 2.479.973 3.974.973 1.158 0 2.222-.203 3.192-.618a6.092 6.092 0 0 0 2.423-1.794l-1.103-1.292a5.4 5.4 0 0 1-1.966 1.452 6.28 6.28 0 0 1-2.496.493c-1.598 0-2.927-.48-3.983-1.418-1.043-.942-1.619-2.174-1.739-3.713h12.17l.034-.618z"/><path fill="#f5f0ec" style="fill:var(--color1,#f5f0ec)" d="M94.572 19.183c.508.545.748 1.288.748 2.239 0 1.288-.526 2.313-1.59 3.069-1.055.748-2.53 1.133-4.406 1.133-1.179 0-2.316-.173-3.393-.523-1.077-.341-1.919-.778-2.53-1.301l.885-1.569c.611.493 1.372.886 2.299 1.197a8.985 8.985 0 0 0 2.876.458c1.329 0 2.308-.216 2.94-.631.645-.415.961-1.011.961-1.781 0-.532-.179-.96-.53-1.266-.346-.311-.791-.545-1.325-.705-.538-.16-1.243-.311-2.132-.458-1.179-.225-2.128-.449-2.855-.683a4.102 4.102 0 0 1-1.833-1.193c-.504-.553-.761-1.331-.761-2.325 0-1.223.509-2.239 1.521-3.017 1.009-.787 2.423-1.18 4.235-1.18.936 0 1.876.125 2.825.38.94.259 1.705.588 2.32.994l-.855 1.599c-1.201-.843-2.637-1.258-4.29-1.258-1.252 0-2.201.22-2.833.67-.645.45-.961 1.033-.961 1.759 0 .553.179 1.003.538 1.344s.812.584 1.35.743c.526.151 1.265.32 2.213.493 1.158.225 2.085.445 2.791.67a4.058 4.058 0 0 1 1.791 1.141zM109.25 21.119c-.479.882-1.12 1.556-1.953 2.031a5.514 5.514 0 0 1-2.769.718c-1.038 0-1.966-.247-2.773-.718a4.995 4.995 0 0 1-1.94-2.031c-.474-.877-.705-1.876-.705-3 0-1.115.231-2.105.705-2.974a5.138 5.138 0 0 1 1.94-2.032c.808-.484 1.735-.726 2.773-.726 1.021 0 1.936.242 2.769.726a5.176 5.176 0 0 1 1.953 2.032c.47.869.701 1.859.701 2.974 0 1.124-.231 2.122-.701 3zm1.722-6.89a6.723 6.723 0 0 0-2.598-2.645c-1.107-.618-2.342-.938-3.705-.938-1.218 0-2.316.268-3.286.791a6.185 6.185 0 0 0-2.329 2.239v-2.909h-1.885v20.147h1.97v-8.195a5.99 5.99 0 0 0 2.329 2.161c.961.501 2.021.748 3.201.748 1.385 0 2.628-.311 3.722-.938a6.625 6.625 0 0 0 2.581-2.645c.637-1.141.944-2.442.944-3.925 0-1.448-.308-2.749-.944-3.89zM114.889 17.259c.137-1.465.671-2.632 1.624-3.544.944-.903 2.128-1.353 3.526-1.353 1.414 0 2.607.45 3.555 1.353.949.912 1.487 2.079 1.611 3.544h-10.316zm12.204.86c0-1.448-.308-2.74-.919-3.864-.603-1.132-1.444-2.019-2.517-2.645-1.068-.644-2.282-.964-3.619-.964-1.346 0-2.56.32-3.645.964-1.077.627-1.927 1.513-2.538 2.654-.62 1.141-.927 2.429-.927 3.856 0 1.439.325 2.732.97 3.873a6.897 6.897 0 0 0 2.696 2.663c1.15.653 2.479.973 3.961.973 1.171 0 2.235-.203 3.205-.618a6.09 6.09 0 0 0 2.414-1.794l-1.107-1.292a5.284 5.284 0 0 1-1.961 1.452 6.28 6.28 0 0 1-2.483.493c-1.615 0-2.944-.48-3.987-1.418-1.051-.942-1.632-2.174-1.748-3.713h12.17l.034-.618zM150.665 24.637c-.368.333-.833.588-1.372.769a5.388 5.388 0 0 1-1.705.268c-1.359 0-2.413-.376-3.153-1.12-.735-.748-1.107-1.802-1.107-3.168V7.593h1.961v3.22h4.428v1.681h-4.428v8.787c0 .873.223 1.543.655 1.993.431.458 1.055.691 1.867.691.411 0 .799-.065 1.18-.203.38-.125.705-.307.979-.553l.696 1.426z"/></symbol><symbol id="icon-Button-1" viewBox="0 0 195 32"><path fill="#1b5b31" style="fill:var(--color3,#1b5b31)" d="M6.241 20.571H2.137V7.272h4.286c1.29 0 2.394.266 3.312.799.918.528 1.621 1.288 2.11 2.279.489.987.734 2.169.734 3.545 0 1.385-.247 2.578-.74 3.578a5.276 5.276 0 0 1-2.156 2.299c-.944.532-2.091.799-3.442.799zm-2.493-1.428h2.39c1.1 0 2.011-.212 2.734-.636s1.262-1.028 1.617-1.812.532-1.716.532-2.799c0-1.074-.175-1.998-.526-2.773-.351-.779-.874-1.377-1.571-1.792-.697-.42-1.565-.63-2.604-.63H3.749v10.442zm15.376 1.636c-.9 0-1.691-.214-2.37-.643-.675-.429-1.203-1.028-1.584-1.799-.377-.771-.565-1.671-.565-2.701 0-1.039.188-1.946.565-2.721.381-.775.909-1.377 1.584-1.805.68-.429 1.47-.643 2.37-.643s1.688.214 2.364.643c.68.429 1.208 1.03 1.584 1.805.381.775.571 1.682.571 2.721 0 1.03-.191 1.931-.571 2.701-.377.77-.905 1.37-1.584 1.799-.675.429-1.463.643-2.364.643zm0-1.376c.684 0 1.247-.175 1.688-.526s.768-.812.981-1.383.318-1.19.318-1.857-.106-1.288-.318-1.864-.539-1.041-.981-1.396c-.442-.355-1.004-.532-1.688-.532s-1.247.178-1.688.532c-.442.355-.768.82-.981 1.396s-.318 1.197-.318 1.864.106 1.286.318 1.857.539 1.032.981 1.383c.442.351 1.004.526 1.688.526zm8.779 1.168-3.039-9.974h1.61l2.156 7.636h.104l2.13-7.636H32.5l2.104 7.61h.104l2.156-7.61h1.61l-3.039 9.974h-1.507l-2.182-7.662h-.156l-2.182 7.662h-1.506zm12.598 0v-9.974h1.532v9.974h-1.532zm.779-11.636c-.299 0-.556-.102-.773-.305a.98.98 0 0 1-.318-.734c0-.286.106-.53.318-.734.216-.203.474-.305.773-.305s.554.102.766.305c.216.203.325.448.325.734s-.108.53-.325.734a1.07 1.07 0 0 1-.766.305zm7.742 11.844c-.961 0-1.79-.212-2.487-.636a4.275 4.275 0 0 1-1.604-1.792c-.372-.77-.558-1.667-.558-2.688s.186-1.922.558-2.701c.377-.784.9-1.394 1.571-1.831.675-.442 1.463-.662 2.364-.662.52 0 1.032.087 1.539.26s.968.455 1.383.844c.416.385.747.896.993 1.532s.37 1.42.37 2.351v.649h-7.688V14.78h6.13c0-.563-.113-1.065-.338-1.506a2.547 2.547 0 0 0-.948-1.045c-.407-.255-.887-.383-1.442-.383-.61 0-1.139.152-1.584.455-.441.299-.781.688-1.019 1.169s-.357.996-.357 1.546v.883c0 .753.13 1.392.39 1.916.264.52.63.916 1.097 1.188.468.268 1.011.403 1.63.403.403 0 .766-.056 1.091-.169.329-.117.613-.29.851-.519.238-.234.422-.524.552-.87l1.48.416a3.287 3.287 0 0 1-.786 1.325 3.817 3.817 0 0 1-1.364.883c-.541.208-1.149.312-1.825.312zm10.227 0c-.831 0-1.565-.21-2.201-.63-.636-.424-1.134-1.022-1.493-1.792-.359-.775-.539-1.691-.539-2.747 0-1.048.18-1.957.539-2.727s.859-1.366 1.5-1.786c.641-.42 1.381-.63 2.221-.63.649 0 1.162.108 1.539.325.381.212.671.455.87.727.204.268.361.489.474.662h.13V7.272h1.532v13.299h-1.48v-1.532h-.182a9.892 9.892 0 0 1-.481.688c-.208.273-.504.517-.89.734-.385.212-.898.318-1.539.318zm.208-1.376c.615 0 1.134-.16 1.558-.481.424-.325.747-.773.968-1.344.221-.576.331-1.24.331-1.994 0-.745-.108-1.396-.325-1.955-.216-.563-.537-1-.961-1.312-.424-.316-.948-.474-1.571-.474-.649 0-1.191.167-1.623.5-.429.329-.751.777-.968 1.344-.212.563-.318 1.195-.318 1.896 0 .71.108 1.355.325 1.935.221.576.545 1.035.974 1.377.433.338.97.506 1.61.506zm7.097 1.168v-1.169l5.662-7.273v-.104h-5.48v-1.429h7.454v1.221l-5.507 7.221v.104h5.688v1.429h-7.818zm22.387-7.74-1.377.39a2.58 2.58 0 0 0-.383-.669c-.165-.221-.39-.403-.675-.546s-.652-.214-1.097-.214c-.61 0-1.119.141-1.526.422-.403.277-.604.63-.604 1.058 0 .381.138.682.416.903s.71.405 1.299.552l1.481.364c.892.216 1.556.548 1.993.994.437.442.656 1.011.656 1.708a2.53 2.53 0 0 1-.493 1.532c-.325.45-.779.805-1.364 1.065s-1.264.39-2.039.39c-1.017 0-1.859-.221-2.526-.662s-1.089-1.087-1.266-1.935l1.454-.364c.138.537.4.939.786 1.208.39.268.898.403 1.526.403.714 0 1.281-.152 1.701-.454.424-.307.636-.675.636-1.104 0-.346-.121-.636-.364-.87-.242-.238-.615-.416-1.117-.532l-1.662-.39c-.913-.216-1.584-.552-2.013-1.006-.424-.459-.636-1.032-.636-1.721 0-.563.158-1.061.474-1.494.32-.433.755-.773 1.305-1.02.554-.247 1.182-.37 1.883-.37.987 0 1.762.216 2.325.649a3.5 3.5 0 0 1 1.208 1.714zm2.488 7.74v-9.974h1.532v9.974h-1.532zm.78-11.636c-.299 0-.556-.102-.773-.305a.98.98 0 0 1-.318-.734c0-.286.106-.53.318-.734.216-.203.474-.305.773-.305s.554.102.766.305c.216.203.325.448.325.734s-.108.53-.325.734a1.07 1.07 0 0 1-.766.305zm7.742 11.844c-.961 0-1.79-.212-2.487-.636a4.275 4.275 0 0 1-1.604-1.792c-.372-.77-.558-1.667-.558-2.688s.186-1.922.558-2.701c.377-.784.9-1.394 1.571-1.831.675-.442 1.463-.662 2.364-.662.52 0 1.032.087 1.539.26s.968.455 1.383.844c.416.385.747.896.993 1.532s.37 1.42.37 2.351v.649h-7.688V14.78h6.13c0-.563-.113-1.065-.338-1.506a2.547 2.547 0 0 0-.948-1.045c-.407-.255-.887-.383-1.442-.383-.61 0-1.138.152-1.584.455-.442.299-.781.688-1.019 1.169s-.357.996-.357 1.546v.883c0 .753.13 1.392.39 1.916.264.52.63.916 1.097 1.188.468.268 1.011.403 1.63.403.403 0 .766-.056 1.091-.169.329-.117.613-.29.851-.519.238-.234.422-.524.552-.87l1.48.416a3.287 3.287 0 0 1-.786 1.325 3.817 3.817 0 0 1-1.364.883c-.541.208-1.149.312-1.825.312zm.051 3.689c-.532 0-.974-.147-1.325-.442-.346-.29-.519-.714-.519-1.273 0-.32.078-.641.234-.961s.407-.63.753-.929c.346-.299.805-.578 1.377-.838l.701.546c-.39.286-.738.589-1.046.909s-.461.675-.461 1.065c0 .195.048.346.143.454.095.113.273.169.532.169.195 0 .368-.026.52-.078s.273-.104.364-.156l.104 1.143a2.828 2.828 0 0 1-.565.26c-.23.087-.5.13-.812.13zm13.812-3.897-3.039-9.974h1.61l2.156 7.636h.104l2.129-7.636h1.637l2.104 7.61h.104l2.155-7.61h1.61l-3.039 9.974h-1.506l-2.182-7.662h-.155l-2.182 7.662h-1.507zm12.597 0v-9.974h1.533v9.974h-1.533zm.78-11.636c-.298 0-.557-.102-.773-.305-.213-.203-.319-.448-.319-.734s.106-.53.319-.734c.216-.203.474-.305.773-.305s.554.102.766.305c.217.203.325.448.325.734s-.107.53-.325.734a1.066 1.066 0 0 1-.766.305zm7.742 11.844c-.961 0-1.79-.212-2.487-.636a4.266 4.266 0 0 1-1.603-1.792c-.373-.77-.559-1.667-.559-2.688s.186-1.922.559-2.701c.376-.784.899-1.394 1.571-1.831.674-.442 1.463-.662 2.363-.662.519 0 1.032.087 1.538.26s.968.455 1.384.844c.415.385.746.896.993 1.532s.37 1.42.37 2.351v.649h-7.689V14.78h6.13c0-.563-.112-1.065-.337-1.506a2.55 2.55 0 0 0-.949-1.045c-.407-.255-.887-.383-1.441-.383-.61 0-1.139.152-1.585.455a2.992 2.992 0 0 0-1.019 1.169c-.238.48-.357.996-.357 1.546v.883c0 .753.129 1.392.39 1.916.264.52.63.916 1.097 1.188.467.268 1.01.403 1.63.403.402 0 .767-.056 1.091-.169.328-.117.613-.29.85-.519.238-.234.422-.524.552-.87l1.48.416a3.274 3.274 0 0 1-.785 1.325 3.83 3.83 0 0 1-1.363.883c-.542.208-1.15.312-1.825.312zm.052 3.689c-.533 0-.975-.147-1.326-.442-.346-.29-.519-.714-.519-1.273 0-.32.078-.641.233-.961.157-.32.407-.63.754-.929.346-.299.805-.578 1.376-.838l.702.546c-.39.286-.738.589-1.046.909s-.461.675-.461 1.065c0 .195.047.346.143.454.095.113.272.169.531.169.195 0 .368-.026.52-.078s.273-.104.363-.156l.104 1.143a2.828 2.828 0 0 1-.565.26c-.23.087-.501.13-.811.13zm10.461-3.689c-.935 0-1.741-.221-2.416-.662s-1.194-1.05-1.558-1.825c-.365-.775-.546-1.66-.546-2.656 0-1.013.186-1.907.559-2.682.377-.779.901-1.387 1.571-1.825.675-.442 1.463-.662 2.363-.662.702 0 1.334.13 1.896.39.563.26 1.024.623 1.384 1.091.359.468.582 1.013.669 1.636h-1.533c-.117-.455-.377-.857-.779-1.208-.398-.355-.935-.532-1.61-.532-.598 0-1.121.156-1.571.468-.446.307-.794.742-1.046 1.305-.247.558-.37 1.214-.37 1.968 0 .77.121 1.442.363 2.013.247.571.593 1.015 1.04 1.331.449.316.978.474 1.584.474.398 0 .76-.069 1.085-.208s.599-.338.824-.598a2.3 2.3 0 0 0 .481-.935h1.533a3.566 3.566 0 0 1-.643 1.591c-.337.468-.785.84-1.344 1.117-.554.273-1.199.409-1.935.409zm10.344 0c-.961 0-1.79-.212-2.487-.636a4.266 4.266 0 0 1-1.603-1.792c-.373-.77-.559-1.667-.559-2.688s.186-1.922.559-2.701c.376-.784.899-1.394 1.571-1.831.674-.442 1.463-.662 2.363-.662.519 0 1.032.087 1.538.26s.968.455 1.384.844c.415.385.746.896.993 1.532s.37 1.42.37 2.351v.649h-7.689V14.78h6.13c0-.563-.112-1.065-.337-1.506a2.55 2.55 0 0 0-.949-1.045c-.407-.255-.887-.383-1.441-.383-.61 0-1.139.152-1.585.455a2.992 2.992 0 0 0-1.019 1.169c-.238.48-.357.996-.357 1.546v.883c0 .753.129 1.392.39 1.916.264.52.63.916 1.097 1.188.467.268 1.01.403 1.63.403.402 0 .767-.056 1.091-.169.328-.117.613-.29.85-.519.238-.234.422-.524.552-.87l1.48.416a3.274 3.274 0 0 1-.785 1.325 3.83 3.83 0 0 1-1.363.883c-.542.208-1.15.312-1.825.312zm6.46-10.182h1.533v10.701c0 .615-.105 1.147-.318 1.597-.208.45-.523.799-.949 1.046-.419.247-.95.37-1.591.37h-.31v-1.429h.286c.467 0 .809-.139 1.025-.416.217-.273.325-.662.325-1.169V10.596zm.755-1.662c-.299 0-.557-.102-.774-.305-.211-.203-.318-.448-.318-.734s.106-.53.318-.734c.217-.203.474-.305.774-.305.298 0 .553.102.766.305.216.203.325.448.325.734s-.109.53-.325.734a1.07 1.07 0 0 1-.766.305zM186.28 4.571l-1.023 1.024 7.402 7.392h-15.517v1.455h15.505l-7.391 7.392 1.023 1.024 9.149-9.148-9.149-9.137zM195.429 30.857H0v2.286h195.429v-2.286z"/></symbol><symbol id="icon-Button" viewBox="0 0 156 32"><path fill="#1b5b31" style="fill:var(--color3,#1b5b31)" d="M14.485 19.137v-.642l3.936-5.875h-3.979v-.784h5.034v.642l-3.936 5.875h3.979v.784h-5.034zm8.627.114c-.494 0-.928-.118-1.301-.353a2.392 2.392 0 0 1-.87-.987c-.207-.423-.31-.917-.31-1.483 0-.57.103-1.068.31-1.494.209-.425.499-.756.87-.991.373-.235.807-.353 1.301-.353s.927.118 1.298.353c.373.235.663.566.87.991.209.425.314.923.314 1.494 0 .566-.105 1.06-.314 1.483a2.365 2.365 0 0 1-.87.987c-.371.235-.803.353-1.298.353zm0-.755c.376 0 .684-.096.927-.289s.422-.446.538-.759c.116-.314.175-.654.175-1.02s-.058-.707-.175-1.023c-.117-.316-.296-.572-.538-.767s-.551-.292-.927-.292-.684.097-.927.292c-.242.195-.422.45-.538.767s-.175.657-.175 1.023c0 .366.058.706.175 1.02s.296.567.538.759c.242.193.551.289.927.289zm3.88.641v-7.301h.841v2.695h.071a7.55 7.55 0 0 1 .257-.364c.112-.15.271-.283.478-.399.209-.119.492-.178.848-.178.461 0 .867.115 1.219.346s.626.557.824.98c.197.423.296.922.296 1.497 0 .58-.099 1.083-.296 1.508a2.337 2.337 0 0 1-.82.984 2.14 2.14 0 0 1-1.209.346c-.352 0-.633-.058-.845-.175a1.557 1.557 0 0 1-.488-.403 5.437 5.437 0 0 1-.264-.378h-.1v.841h-.813zm.827-2.738c0 .414.061.778.182 1.094.121.314.298.56.531.738.233.176.518.264.856.264.352 0 .645-.093.881-.278.238-.188.416-.44.535-.756a2.97 2.97 0 0 0 .182-1.062c0-.385-.059-.732-.178-1.041a1.614 1.614 0 0 0-.531-.738c-.235-.183-.531-.274-.888-.274-.342 0-.63.087-.863.26a1.562 1.562 0 0 0-.528.72 2.957 2.957 0 0 0-.178 1.073zm6.906 2.867c-.347 0-.662-.065-.945-.196a1.62 1.62 0 0 1-.674-.574c-.166-.252-.25-.556-.25-.913 0-.314.062-.568.185-.763.124-.197.289-.352.496-.463s.435-.195.684-.25c.252-.057.505-.102.759-.136.333-.043.602-.075.809-.096.209-.024.361-.063.456-.118.097-.055.146-.15.146-.285v-.029c0-.352-.096-.625-.289-.82-.19-.195-.479-.292-.866-.292-.402 0-.717.088-.945.264s-.389.364-.481.563l-.799-.285c.143-.333.333-.592.57-.777.24-.188.502-.319.784-.392.285-.076.566-.114.841-.114.176 0 .378.021.606.064.231.04.453.125.667.253.216.128.396.322.538.581s.214.606.214 1.041v3.608h-.841v-.742h-.043c-.057.119-.152.246-.285.381s-.31.251-.531.346a2.048 2.048 0 0 1-.809.143zm.128-.756c.333 0 .613-.065.841-.196a1.327 1.327 0 0 0 .698-1.158v-.77c-.036.043-.114.082-.235.118a4.017 4.017 0 0 1-.414.089 16.968 16.968 0 0 1-.806.107 3.254 3.254 0 0 0-.613.139c-.188.062-.34.156-.456.282-.114.124-.171.292-.171.506 0 .292.108.513.324.663.219.147.496.221.831.221zm6.142.741c-.513 0-.955-.121-1.326-.364s-.656-.576-.856-1.002c-.2-.425-.299-.912-.299-1.458 0-.556.102-1.047.307-1.472a2.42 2.42 0 0 1 .863-1.002c.371-.242.803-.364 1.298-.364.385 0 .732.071 1.041.214s.562.342.759.599c.197.257.32.556.367.898h-.841a1.3 1.3 0 0 0-.428-.663c-.219-.195-.513-.292-.884-.292a1.48 1.48 0 0 0-.863.257 1.674 1.674 0 0 0-.574.717c-.136.307-.203.667-.203 1.08 0 .423.067.791.2 1.105.135.314.326.557.57.731.247.174.537.26.87.26.219 0 .417-.038.595-.114a1.23 1.23 0 0 0 .717-.841h.841a1.94 1.94 0 0 1-1.091 1.486c-.304.15-.658.225-1.062.225zm3.226-.114v-.642l3.109-3.993v-.057h-3.009v-.784h4.093v.67l-3.023 3.964v.057h3.123v.784h-4.292zm9.253-3.294v3.294h-.841v-5.476h.813v.856h.071c.128-.278.323-.502.585-.67.261-.171.599-.257 1.013-.257.371 0 .695.076.973.228.278.15.494.378.649.684.154.304.232.689.232 1.155v3.48h-.841v-3.422c0-.43-.112-.765-.335-1.005-.223-.242-.53-.364-.92-.364a1.46 1.46 0 0 0-.72.175c-.209.117-.374.286-.496.51s-.182.494-.182.813zm6.643 3.423c-.347 0-.662-.065-.945-.196a1.62 1.62 0 0 1-.674-.574c-.166-.252-.25-.556-.25-.913 0-.314.062-.568.185-.763.124-.197.289-.352.495-.463s.435-.195.684-.25c.252-.057.505-.102.759-.136.333-.043.602-.075.809-.096.209-.024.361-.063.456-.118.097-.055.146-.15.146-.285v-.029c0-.352-.096-.625-.289-.82-.19-.195-.479-.292-.866-.292-.402 0-.717.088-.945.264s-.389.364-.481.563l-.799-.285c.143-.333.333-.592.57-.777a2.12 2.12 0 0 1 .784-.392c.285-.076.566-.114.841-.114.176 0 .378.021.606.064.231.04.453.125.667.253.216.128.396.322.538.581s.214.606.214 1.041v3.608h-.841v-.742h-.043c-.057.119-.152.246-.285.381s-.31.251-.531.346a2.048 2.048 0 0 1-.809.143zm.128-.756c.333 0 .613-.065.841-.196a1.337 1.337 0 0 0 .699-1.158v-.77c-.036.043-.114.082-.235.118a4.017 4.017 0 0 1-.414.089 16.968 16.968 0 0 1-.806.107 3.254 3.254 0 0 0-.613.139c-.188.062-.34.156-.456.282-.114.124-.171.292-.171.506 0 .292.108.513.324.663.219.147.495.221.831.221zm7.796-3.622-.755.214a1.437 1.437 0 0 0-.21-.367c-.09-.121-.214-.221-.371-.299s-.358-.118-.603-.118c-.335 0-.614.077-.838.232-.221.152-.331.346-.331.581 0 .209.076.374.228.496s.39.222.713.303l.813.2c.49.119.855.301 1.095.546.24.242.36.555.36.938 0 .314-.09.594-.27.841-.178.247-.428.442-.749.585s-.694.214-1.119.214c-.558 0-1.021-.121-1.387-.364s-.598-.597-.695-1.062l.799-.2c.076.295.22.516.431.663.214.147.493.221.838.221.392 0 .703-.083.934-.25.233-.169.35-.371.35-.606a.64.64 0 0 0-.2-.478c-.133-.131-.338-.228-.613-.292l-.913-.214c-.501-.119-.87-.303-1.105-.553-.233-.252-.35-.567-.35-.945 0-.309.087-.582.26-.82.176-.238.415-.424.717-.56a2.506 2.506 0 0 1 1.033-.203c.542 0 .968.119 1.277.357.311.238.532.551.663.941zm1.21 4.249v-.642l3.108-3.993v-.057H69.35v-.784h4.093v.67l-3.023 3.964v.057h3.123v.784h-4.292zm7.727.114c-.528 0-.983-.116-1.365-.349a2.337 2.337 0 0 1-.88-.984c-.205-.423-.307-.915-.307-1.476s.102-1.055.307-1.483a2.41 2.41 0 0 1 .863-1.005c.371-.242.803-.364 1.298-.364.285 0 .567.047.845.143s.531.25.76.463c.228.211.41.492.545.841s.203.78.203 1.291v.357h-4.221v-.727h3.365c0-.309-.061-.585-.185-.827a1.397 1.397 0 0 0-.521-.574 1.457 1.457 0 0 0-.791-.21c-.335 0-.625.083-.87.25-.243.164-.429.378-.56.642s-.196.547-.196.849v.485c0 .414.072.764.214 1.052.145.285.346.503.602.652.257.147.555.221.895.221.222 0 .421-.031.599-.093.181-.064.336-.159.467-.285a1.3 1.3 0 0 0 .303-.478l.813.228c-.086.276-.23.518-.432.727a2.11 2.11 0 0 1-.749.485 2.778 2.778 0 0 1-1.002.171zm6.371-.114v-5.476h.813v.827h.057c.1-.271.28-.491.542-.659s.556-.253.884-.253a7.253 7.253 0 0 1 .442.015v.856a2.417 2.417 0 0 0-.196-.032 1.895 1.895 0 0 0-.317-.025c-.266 0-.504.056-.713.168a1.229 1.229 0 0 0-.67 1.116v3.465h-.841zm5.864.114c-.528 0-.983-.116-1.365-.349a2.337 2.337 0 0 1-.88-.984c-.205-.423-.307-.915-.307-1.476s.102-1.055.307-1.483a2.41 2.41 0 0 1 .863-1.005c.371-.242.803-.364 1.298-.364.285 0 .567.047.845.143s.531.25.76.463c.228.211.41.492.545.841s.203.78.203 1.291v.357h-4.221v-.727h3.365c0-.309-.061-.585-.185-.827a1.397 1.397 0 0 0-.521-.574 1.457 1.457 0 0 0-.791-.21c-.335 0-.625.083-.87.25-.243.164-.429.378-.56.642s-.196.547-.196.849v.485c0 .414.072.764.214 1.052.145.285.346.503.602.652.257.147.555.221.895.221.222 0 .421-.031.599-.093.181-.064.336-.159.467-.285a1.3 1.3 0 0 0 .303-.478l.813.228c-.086.276-.23.518-.432.727a2.11 2.11 0 0 1-.749.485 2.778 2.778 0 0 1-1.002.171zm5.159.015c-.347 0-.662-.065-.945-.196a1.615 1.615 0 0 1-.674-.574c-.166-.252-.249-.556-.249-.913 0-.314.061-.568.185-.763.124-.197.289-.352.496-.463s.435-.195.685-.25c.252-.057.505-.102.759-.136.333-.043.602-.075.809-.096.209-.024.361-.063.456-.118.097-.055.146-.15.146-.285v-.029c0-.352-.096-.625-.289-.82-.19-.195-.479-.292-.867-.292-.402 0-.717.088-.945.264s-.388.364-.481.563l-.798-.285c.142-.333.333-.592.57-.777a2.12 2.12 0 0 1 .784-.392c.285-.076.565-.114.841-.114.176 0 .378.021.606.064.231.04.453.125.667.253.216.128.396.322.538.581s.214.606.214 1.041v3.608h-.841v-.742h-.043c-.057.119-.152.246-.285.381s-.31.251-.531.346a2.051 2.051 0 0 1-.809.143zm.128-.756c.333 0 .614-.065.841-.196a1.337 1.337 0 0 0 .699-1.158v-.77c-.036.043-.114.082-.235.118a4.052 4.052 0 0 1-.413.089 17.565 17.565 0 0 1-.806.107 3.264 3.264 0 0 0-.614.139 1.06 1.06 0 0 0-.456.282c-.114.124-.171.292-.171.506 0 .292.109.513.325.663.218.147.495.221.83.221zm4.758-6.674v7.301h-.841v-7.301h.841zm1.541 7.301v-5.476h.841v5.476h-.841zm.428-6.388a.595.595 0 0 1-.424-.168c-.117-.112-.175-.246-.175-.403s.058-.291.175-.403c.119-.112.26-.168.424-.168s.304.056.42.168c.119.112.179.246.179.403s-.06.291-.179.403a.584.584 0 0 1-.42.168zm1.798 6.388v-.642l3.109-3.993v-.057h-3.009v-.784h4.093v.67l-3.023 3.964v.057h3.123v.784h-4.292zm7.199.129c-.347 0-.661-.065-.944-.196a1.615 1.615 0 0 1-.674-.574c-.166-.252-.25-.556-.25-.913 0-.314.062-.568.186-.763.124-.197.289-.352.495-.463s.435-.195.685-.25a8.58 8.58 0 0 1 .76-.136c.333-.043.602-.075.809-.096.21-.024.361-.063.457-.118.097-.055.146-.15.146-.285v-.029c0-.352-.097-.625-.289-.82-.19-.195-.479-.292-.866-.292-.402 0-.717.088-.945.264s-.388.364-.481.563l-.799-.285c.142-.333.333-.592.57-.777.24-.188.502-.319.784-.392.285-.076.566-.114.841-.114.176 0 .378.021.606.064.231.04.453.125.667.253.216.128.395.322.538.581s.213.606.213 1.041v3.608h-.841v-.742h-.043c-.057.119-.152.246-.285.381s-.31.251-.531.346a2.048 2.048 0 0 1-.809.143zm.129-.756c.333 0 .613-.065.841-.196a1.334 1.334 0 0 0 .699-1.158v-.77c-.036.043-.114.082-.235.118a4.017 4.017 0 0 1-.414.089 17.5 17.5 0 0 1-.805.107 3.272 3.272 0 0 0-.613.139c-.188.062-.34.156-.456.282-.114.124-.171.292-.171.506 0 .292.108.513.324.663.219.147.496.221.831.221zm6.141.741c-.513 0-.955-.121-1.326-.364s-.656-.576-.856-1.002-.299-.912-.299-1.458c0-.556.102-1.047.306-1.472a2.42 2.42 0 0 1 .863-1.002 2.323 2.323 0 0 1 1.298-.364c.385 0 .732.071 1.041.214s.562.342.759.599c.197.257.319.556.367.898h-.841a1.294 1.294 0 0 0-.428-.663c-.218-.195-.513-.292-.884-.292a1.48 1.48 0 0 0-.863.257 1.665 1.665 0 0 0-.573.717c-.136.307-.203.667-.203 1.08 0 .423.067.791.2 1.105.136.314.326.557.57.731.247.174.537.26.87.26.219 0 .417-.038.595-.114s.329-.185.453-.328c.124-.143.211-.314.264-.513h.841a1.95 1.95 0 0 1-.353.873 1.977 1.977 0 0 1-.738.613c-.304.15-.659.225-1.063.225zm3.384-5.59h.841v5.875c0 .337-.058.63-.174.877a1.251 1.251 0 0 1-.521.574c-.23.135-.521.203-.873.203h-.17v-.784h.156c.257 0 .444-.076.563-.228.119-.15.178-.364.178-.642v-5.875zm.413-.912a.597.597 0 0 1-.424-.168.54.54 0 0 1-.174-.403.54.54 0 0 1 .174-.403c.119-.112.26-.168.424-.168s.304.056.421.168c.119.112.178.246.178.403s-.06.291-.178.403a.587.587 0 0 1-.421.168zm4.265 6.502c-.528 0-.983-.116-1.365-.349a2.337 2.337 0 0 1-.88-.984c-.205-.423-.307-.915-.307-1.476s.102-1.055.307-1.483a2.41 2.41 0 0 1 .863-1.005c.371-.242.803-.364 1.298-.364.285 0 .567.047.845.143s.531.25.759.463c.228.211.41.492.545.841s.203.78.203 1.291v.357h-4.221v-.727h3.365c0-.309-.061-.585-.185-.827a1.397 1.397 0 0 0-.521-.574 1.457 1.457 0 0 0-.791-.21c-.335 0-.625.083-.87.25-.243.164-.429.378-.56.642s-.196.547-.196.849v.485c0 .414.072.764.214 1.052.145.285.346.503.602.652.257.147.555.221.895.221.222 0 .421-.031.599-.093.181-.064.336-.159.467-.285.131-.128.232-.288.303-.478l.813.228c-.086.276-.23.518-.432.727a2.11 2.11 0 0 1-.749.485 2.778 2.778 0 0 1-1.002.171zM142.431 15.37l-.562-.562-4.058 4.064v-8.519h-.798v8.513l-4.058-4.058-.562.562 5.023 5.023 5.016-5.023z"/></symbol><symbol id="icon-Frame-2310" viewBox="0 0 32 32"><path d="M24.803 16.707a.999.999 0 0 0 0-1.414l-6.364-6.364a.999.999 0 1 0-1.414 1.414L22.682 16l-5.657 5.657a.999.999 0 1 0 1.414 1.414l6.364-6.364zM7.904 17h16.192v-2H7.904v2z"/></symbol><symbol id="icon-Arrow-1" viewBox="0 0 36 32"><path d="M1.06 14.586a2 2 0 0 0 0 2.829l12.728 12.728a2 2 0 1 0 2.828-2.828L5.302 16.001 16.616 4.687a2 2 0 1 0-2.828-2.828L1.06 14.587zM34.859 14H2.474v4h32.385v-4z"/></symbol><symbol id="icon-Icon-01" viewBox="0 0 32 32"><path d="M13.333 3C7.626 3 3 7.626 3 13.333s4.626 10.333 10.333 10.333c2.493 0 4.78-.883 6.566-2.354l7.394 7.394.112.097a1 1 0 0 0 1.302-1.511l-7.394-7.394a10.288 10.288 0 0 0 2.354-6.566c0-5.707-4.626-10.333-10.333-10.333zm0 2a8.333 8.333 0 1 1 0 16.666 8.333 8.333 0 0 1 0-16.666z"/></symbol><symbol id="icon-giarddesign" viewBox="0 0 184 32"><path d="M7.392 31.2c-2.005 0-3.744-.352-5.216-1.056C.725 29.461 0 28.405 0 26.976c0-.853.352-1.611 1.056-2.272.725-.661 1.643-1.205 2.752-1.632 1.109-.448 2.368-.843 3.776-1.184.277-.085.501-.139.672-.16l.608.64c-.939.299-1.707.608-2.304.928s-1.056.683-1.376 1.088c-.32.384-.48.811-.48 1.28 0 .661.299 1.12.896 1.376.619.277 1.429.416 2.432.416.96 0 1.877-.107 2.752-.32.896-.213 1.632-.523 2.208-.928s.864-.885.864-1.44c0-.363-.16-.651-.48-.864s-.768-.32-1.344-.32c-.512 0-1.035.053-1.568.16a25.99 25.99 0 0 0-1.984.416c-.683.192-1.269.331-1.76.416a6.482 6.482 0 0 1-3.808-.288c-.725-.32-1.312-.747-1.76-1.28a3.014 3.014 0 0 1-.64-1.888c0-.981.491-1.835 1.472-2.56 1.003-.747 2.379-1.397 4.128-1.952l1.056.928c-.277.085-.533.171-.768.256-.555.192-.971.405-1.248.64s-.416.555-.416.96c0 .341.139.597.416.768.299.171.672.256 1.12.256.491 0 1.003-.032 1.536-.096A28.055 28.055 0 0 0 9.472 20c.917-.171 1.717-.299 2.4-.384s1.429-.128 2.24-.128c1.429 0 2.613.341 3.552 1.024.96.683 1.44 1.728 1.44 3.136 0 1.621-.608 2.997-1.824 4.128-1.195 1.152-2.699 2.005-4.512 2.56-1.813.576-3.605.864-5.376.864zm1.344-12.32c-1.515 0-2.859-.256-4.032-.768-1.152-.533-2.059-1.269-2.72-2.208-.64-.939-.96-1.995-.96-3.168 0-1.152.32-2.187.96-3.104.661-.939 1.579-1.664 2.752-2.176 1.173-.533 2.507-.8 4-.8.917 0 1.653.075 2.208.224.576.149 1.195.352 1.856.608.256.107.491.203.704.288.235.064.459.096.672.096.555 0 .949-.192 1.184-.576s.352-.885.352-1.504l4.032 1.28c-.021.811-.352 1.44-.992 1.888-.619.427-1.44.64-2.464.64a52.76 52.76 0 0 0-.864-.064c.683.939 1.024 2.005 1.024 3.2a5.374 5.374 0 0 1-.992 3.168c-.64.939-1.547 1.675-2.72 2.208-1.173.512-2.507.768-4 .768zm0-3.136c.533 0 1.003-.128 1.408-.384s.715-.608.928-1.056a3.75 3.75 0 0 0 .32-1.568c0-.853-.245-1.557-.736-2.112-.469-.555-1.109-.832-1.92-.832-.533 0-1.003.128-1.408.384s-.725.608-.96 1.056c-.213.448-.32.949-.32 1.504 0 .875.245 1.6.736 2.176.512.555 1.163.832 1.952.832zM20.9 7.104h5.056v13.248c0 1.515.075 2.901.224 4.16H20.9V7.104zM20.836.8h5.152v4.448h-5.152V.8zM44.292 24.96c-1.365 0-2.432-.395-3.2-1.184s-1.152-1.941-1.152-3.456v-6.912c0-1.024-.245-1.792-.736-2.304-.469-.533-1.195-.8-2.176-.8-1.024 0-2.016.299-2.976.896s-1.792 1.472-2.496 2.624L28.1 11.136c1.216-1.472 2.624-2.581 4.224-3.328 1.621-.768 3.371-1.152 5.248-1.152 1.749 0 3.168.277 4.256.832 1.088.533 1.888 1.301 2.4 2.304.512.981.768 2.144.768 3.488v7.296c.021.363.107.629.256.8s.363.256.64.256c.235 0 .459-.011.672-.032.235-.043.48-.107.736-.192l-.64 3.104a5.133 5.133 0 0 1-1.152.32 5.911 5.911 0 0 1-1.216.128zm-10.432 0c-1.749 0-3.136-.448-4.16-1.344-1.003-.917-1.504-2.091-1.504-3.52 0-1.259.469-2.379 1.408-3.36.939-1.003 2.336-1.813 4.192-2.432s4.139-1.035 6.848-1.248v3.2c-1.643.149-2.997.363-4.064.64-1.045.277-1.835.629-2.368 1.056-.512.405-.768.896-.768 1.472 0 .469.171.853.512 1.152.363.277.853.416 1.472.416.832 0 1.589-.181 2.272-.544s1.227-.875 1.632-1.536c.405-.661.608-1.44.608-2.336l.992.288c0 1.365-.245 2.667-.736 3.904a6.88 6.88 0 0 1-2.336 3.008c-1.045.789-2.379 1.184-4 1.184zM48.682 7.104h5.088v4.16c.683-1.472 1.493-2.603 2.432-3.392.939-.811 1.909-1.216 2.912-1.216.597 0 1.131.096 1.6.288a6.39 6.39 0 0 1 1.408.736l-2.048 4.448c-.448-.299-.853-.512-1.216-.64a3.265 3.265 0 0 0-1.248-.224c-.683 0-1.312.203-1.888.608-.576.384-1.045.971-1.408 1.76s-.544 1.739-.544 2.848v3.872c0 1.515.075 2.901.224 4.16h-5.312V7.104zM69.762 24.96c-1.664 0-3.115-.373-4.352-1.12-1.237-.768-2.197-1.835-2.88-3.2-.661-1.387-.992-2.997-.992-4.832s.331-3.435.992-4.8c.683-1.387 1.643-2.453 2.88-3.2 1.237-.768 2.688-1.152 4.352-1.152 1.173 0 2.272.299 3.296.896s1.856 1.419 2.496 2.464V1.632H80v18.72c0 1.515.085 2.901.256 4.16h-4.702v-3.04c-.619 1.088-1.44 1.941-2.464 2.56a6.211 6.211 0 0 1-3.328.928zm-2.88-9.152c0 1.045.181 1.973.544 2.784.363.789.864 1.408 1.504 1.856.64.427 1.397.64 2.272.64.789 0 1.515-.224 2.176-.672s1.184-1.035 1.568-1.76a4.897 4.897 0 0 0 .608-2.368v-.96c0-.875-.203-1.675-.608-2.4s-.949-1.301-1.632-1.728c-.661-.448-1.365-.672-2.112-.672-.875 0-1.632.224-2.272.672-.64.427-1.141 1.045-1.504 1.856-.363.789-.544 1.707-.544 2.752zM91.269 24.96c-1.621 0-3.061-.384-4.32-1.152s-2.24-1.845-2.944-3.232c-.683-1.387-1.024-2.976-1.024-4.768s.341-3.381 1.024-4.768c.704-1.387 1.685-2.464 2.944-3.232s2.699-1.152 4.32-1.152c1.387 0 2.645.373 3.776 1.12 1.152.725 2.037 1.717 2.656 2.976v-9.12h2.912v18.72c0 1.536.053 2.923.16 4.16h-3.072v-3.68a7.178 7.178 0 0 1-2.624 3.008c-1.131.747-2.4 1.12-3.808 1.12zm-5.152-9.152c0 1.323.245 2.507.736 3.552.491 1.024 1.173 1.824 2.048 2.4s1.877.864 3.008.864a5.323 5.323 0 0 0 2.912-.832 6.07 6.07 0 0 0 2.112-2.176c.512-.917.768-1.92.768-3.008v-1.6a5.881 5.881 0 0 0-.8-3.008 5.747 5.747 0 0 0-2.112-2.176 5.27 5.27 0 0 0-2.88-.832c-1.131 0-2.133.288-3.008.864s-1.557 1.387-2.048 2.432c-.491 1.024-.736 2.197-.736 3.52zM112.473 24.96c-1.579 0-3.04-.331-4.384-.992s-2.421-1.643-3.232-2.944c-.789-1.301-1.184-2.88-1.184-4.736s.373-3.509 1.12-4.96c.768-1.472 1.813-2.613 3.136-3.424 1.344-.832 2.869-1.248 4.576-1.248 1.749 0 3.232.395 4.448 1.184s2.133 1.909 2.752 3.36c.64 1.429.96 3.104.96 5.024h-15.552v-2.272h13.6l-1.056.928c0-1.131-.203-2.144-.608-3.04-.405-.917-1.003-1.632-1.792-2.144-.768-.512-1.685-.768-2.752-.768-1.152 0-2.165.299-3.04.896-.853.576-1.525 1.419-2.016 2.528-.491 1.088-.736 2.357-.736 3.808 0 1.472.267 2.699.8 3.68s1.237 1.707 2.112 2.176c.875.448 1.835.672 2.88.672 1.515 0 2.773-.395 3.776-1.184a6.63 6.63 0 0 0 2.208-2.976l2.432 1.696c-1.003 1.536-2.219 2.709-3.648 3.52s-3.029 1.216-4.8 1.216zM130.924 24.96c-1.813 0-3.509-.395-5.088-1.184-1.557-.811-2.805-1.92-3.744-3.328l2.176-1.792c.597 1.301 1.493 2.315 2.688 3.04 1.216.725 2.56 1.088 4.032 1.088.768 0 1.451-.107 2.048-.32.597-.235 1.067-.555 1.408-.96.341-.427.512-.928.512-1.504 0-.619-.224-1.131-.672-1.536-.448-.427-1.003-.757-1.664-.992-.64-.256-1.536-.533-2.688-.832-1.429-.384-2.592-.747-3.488-1.088a6.694 6.694 0 0 1-2.272-1.536c-.619-.661-.928-1.536-.928-2.624 0-.917.267-1.739.8-2.464s1.291-1.28 2.272-1.664c.981-.405 2.091-.608 3.328-.608 1.557 0 2.997.267 4.32.8 1.344.533 2.528 1.483 3.552 2.848l-2.176 1.792c-.512-1.067-1.291-1.877-2.336-2.432s-2.176-.832-3.392-.832c-1.045 0-1.899.213-2.56.64-.64.405-.96.949-.96 1.632 0 .555.203 1.013.608 1.376.427.363.949.661 1.568.896.619.213 1.461.459 2.528.736 1.493.405 2.699.789 3.616 1.152a6.247 6.247 0 0 1 2.4 1.632c.683.704 1.024 1.643 1.024 2.816 0 1.067-.309 2.005-.928 2.816-.619.789-1.451 1.397-2.496 1.824-1.024.405-2.187.608-3.488.608zM140.537 7.104h2.912v13.248c0 1.536.053 2.923.16 4.16h-3.072V7.104zm-.192-5.728h3.296V4.48h-3.296V1.376zM152.469 31.2c-1.792 0-3.328-.363-4.608-1.088s-1.92-1.792-1.92-3.2c0-.789.277-1.493.832-2.112s1.301-1.141 2.24-1.568c.939-.448 2.059-.832 3.36-1.152.256-.064.48-.117.672-.16l.384.512c-.981.32-1.803.661-2.464 1.024-.661.341-1.184.747-1.568 1.216s-.576 1.024-.576 1.664c0 .896.395 1.557 1.184 1.984.811.427 1.813.64 3.008.64 1.28 0 2.528-.192 3.744-.576 1.237-.384 2.24-.928 3.008-1.632.768-.683 1.152-1.472 1.152-2.368 0-.619-.213-1.099-.64-1.44-.426-.363-1.045-.544-1.856-.544-.512 0-1.067.064-1.664.192-.576.107-1.365.288-2.368.544-.832.235-1.525.416-2.08.544a7.875 7.875 0 0 1-1.472.16 6.955 6.955 0 0 1-2.144-.32c-.64-.235-1.163-.565-1.568-.992a2.336 2.336 0 0 1-.576-1.568c0-.896.448-1.685 1.344-2.368.896-.704 2.101-1.259 3.616-1.664l.608.8a6.616 6.616 0 0 0-1.12.416c-.64.256-1.109.555-1.408.896-.299.32-.448.672-.448 1.056 0 .427.192.725.576.896s.885.256 1.504.256c.533 0 1.088-.053 1.664-.16a62.871 62.871 0 0 0 1.984-.48 26.554 26.554 0 0 1 2.304-.512 10.752 10.752 0 0 1 2.048-.192c1.451 0 2.614.341 3.488 1.024.875.683 1.312 1.675 1.312 2.976 0 1.472-.576 2.763-1.728 3.872-1.13 1.109-2.592 1.952-4.384 2.528a16.92 16.92 0 0 1-5.44.896zm1.728-12.512c-1.365 0-2.571-.256-3.616-.768-1.045-.533-1.867-1.259-2.464-2.176-.576-.917-.864-1.941-.864-3.072s.288-2.155.864-3.072c.597-.917 1.419-1.632 2.464-2.144 1.067-.533 2.272-.8 3.616-.8.917 0 1.675.096 2.272.288s1.227.448 1.888.768c.363.192.672.341.928.448.256.085.523.128.8.128.64 0 1.099-.192 1.376-.576.299-.405.448-.928.448-1.568l2.432.832c-.021.853-.352 1.504-.992 1.952s-1.386.672-2.24.672c-.213 0-.501-.021-.864-.064.619.896.928 1.941.928 3.136 0 1.131-.288 2.155-.864 3.072s-1.397 1.643-2.464 2.176c-1.067.512-2.283.768-3.648.768zm0-1.952c.832 0 1.547-.171 2.144-.512a3.659 3.659 0 0 0 1.376-1.472c.32-.64.48-1.333.48-2.08 0-1.152-.363-2.112-1.088-2.88-.704-.789-1.675-1.184-2.912-1.184-.811 0-1.525.181-2.144.544a3.659 3.659 0 0 0-1.376 1.472c-.299.597-.448 1.28-.448 2.048 0 1.173.352 2.144 1.056 2.912.725.768 1.696 1.152 2.912 1.152zM166.413 7.104h2.912v5.056a8.798 8.798 0 0 1 1.824-2.88 8.407 8.407 0 0 1 2.688-1.92 7.176 7.176 0 0 1 3.072-.704c1.301 0 2.389.256 3.264.768.896.491 1.557 1.173 1.984 2.048.448.875.672 1.888.672 3.04v7.84c0 1.536.053 2.923.16 4.16h-3.072V12.96c0-1.28-.32-2.251-.96-2.912-.619-.661-1.611-.992-2.976-.992-1.003 0-2.027.309-3.072.928-1.024.619-1.878 1.493-2.56 2.624-.683 1.109-1.024 2.4-1.024 3.872v8.032h-2.912V7.104z"/><symbol id="icon-Icon-3" viewBox="0 0 32 32"><path d="M5.68 12.838a1.185 1.185 0 0 1 1.543-1.791l.133.115 8.643 8.643 8.643-8.643a1.185 1.185 0 0 1 1.543-.115l.133.115c.421.421.459 1.079.115 1.543l-.115.133-9.482 9.482a1.185 1.185 0 0 1-1.543.115l-.133-.115-9.482-9.482z"/></symbol></symbol></defs></svg>