<svg aria-hidden="true" style="position: absolute; width: 0; height: 0; overflow: hidden;" version="1.1" xmlns="http://www.w3.org/2000/svg" xmlns:xlink="http://www.w3.org/1999/xlink">
<defs>
<symbol id="icon-Copy" viewBox="0 0 495 32">
<path fill="#f5f0ec" style="fill: var(--color1, #f5f0ec)" d="M1.007 29.538v-28.643h9.678c2.247 0 4.084 0.406 5.511 1.217 1.436 0.802 2.499 1.888 3.189 3.259s1.035 2.9 1.035 4.587c0 1.688-0.345 3.221-1.035 4.601-0.681 1.38-1.734 2.48-3.161 3.301-1.427 0.811-3.254 1.217-5.482 1.217h-6.937v-3.077h6.825c1.538 0 2.774-0.266 3.706-0.797s1.608-1.249 2.028-2.154c0.429-0.914 0.643-1.944 0.643-3.091s-0.214-2.172-0.643-3.077c-0.42-0.904-1.1-1.613-2.042-2.126-0.942-0.522-2.191-0.783-3.748-0.783h-6.098v25.566h-3.469zM25.166 29.538v-21.483h3.189v3.245h0.224c0.392-1.063 1.1-1.925 2.126-2.587s2.182-0.993 3.469-0.993c0.242 0 0.545 0.005 0.909 0.014s0.639 0.023 0.825 0.042v3.357c-0.112-0.028-0.368-0.070-0.769-0.126-0.392-0.065-0.807-0.098-1.245-0.098-1.044 0-1.977 0.219-2.797 0.657-0.811 0.429-1.455 1.026-1.93 1.79-0.466 0.755-0.699 1.618-0.699 2.587v13.594h-3.301zM45.747 30.042c-1.361 0-2.597-0.256-3.706-0.769-1.109-0.522-1.991-1.273-2.643-2.252-0.653-0.988-0.979-2.182-0.979-3.58 0-1.231 0.242-2.228 0.727-2.993 0.485-0.774 1.133-1.38 1.944-1.818s1.706-0.765 2.685-0.979c0.988-0.224 1.981-0.401 2.979-0.531 1.305-0.168 2.364-0.294 3.175-0.378 0.82-0.093 1.417-0.247 1.79-0.462 0.382-0.214 0.573-0.587 0.573-1.119v-0.112c0-1.38-0.378-2.452-1.133-3.217-0.746-0.765-1.879-1.147-3.399-1.147-1.576 0-2.811 0.345-3.706 1.035s-1.524 1.427-1.888 2.21l-3.133-1.119c0.559-1.305 1.305-2.322 2.238-3.049 0.942-0.737 1.968-1.249 3.077-1.538 1.119-0.298 2.219-0.448 3.301-0.448 0.69 0 1.482 0.084 2.378 0.252 0.904 0.159 1.776 0.49 2.615 0.993 0.849 0.504 1.552 1.263 2.112 2.28s0.839 2.378 0.839 4.084v14.154h-3.301v-2.909h-0.168c-0.224 0.466-0.597 0.965-1.119 1.496s-1.217 0.984-2.084 1.357c-0.867 0.373-1.925 0.559-3.175 0.559zM46.251 27.077c1.305 0 2.405-0.256 3.301-0.769 0.904-0.513 1.585-1.175 2.042-1.986 0.466-0.811 0.699-1.664 0.699-2.559v-3.021c-0.14 0.168-0.447 0.322-0.923 0.462-0.466 0.131-1.007 0.247-1.622 0.35-0.606 0.093-1.198 0.177-1.776 0.252-0.569 0.065-1.030 0.121-1.385 0.168-0.858 0.112-1.66 0.294-2.405 0.545-0.737 0.242-1.333 0.611-1.79 1.105-0.447 0.485-0.671 1.147-0.671 1.986 0 1.147 0.424 2.014 1.273 2.601 0.858 0.578 1.944 0.867 3.259 0.867zM66.091 29.538l-6.545-21.483h3.468l4.643 16.448h0.224l4.588-16.448h3.524l4.531 16.392h0.224l4.643-16.392h3.468l-6.545 21.483h-3.245l-4.699-16.503h-0.336l-4.699 16.503h-3.245zM99.152 30.042c-1.361 0-2.597-0.256-3.706-0.769-1.11-0.522-1.991-1.273-2.643-2.252-0.653-0.988-0.979-2.182-0.979-3.58 0-1.231 0.242-2.228 0.727-2.993 0.485-0.774 1.133-1.38 1.944-1.818s1.706-0.765 2.685-0.979c0.988-0.224 1.981-0.401 2.979-0.531 1.305-0.168 2.364-0.294 3.175-0.378 0.821-0.093 1.417-0.247 1.79-0.462 0.382-0.214 0.573-0.587 0.573-1.119v-0.112c0-1.38-0.378-2.452-1.133-3.217-0.746-0.765-1.879-1.147-3.399-1.147-1.576 0-2.811 0.345-3.706 1.035s-1.525 1.427-1.888 2.21l-3.133-1.119c0.559-1.305 1.305-2.322 2.238-3.049 0.942-0.737 1.967-1.249 3.077-1.538 1.119-0.298 2.219-0.448 3.301-0.448 0.69 0 1.483 0.084 2.378 0.252 0.904 0.159 1.776 0.49 2.615 0.993 0.849 0.504 1.552 1.263 2.112 2.28s0.839 2.378 0.839 4.084v14.154h-3.301v-2.909h-0.168c-0.224 0.466-0.597 0.965-1.119 1.496s-1.217 0.984-2.084 1.357c-0.867 0.373-1.925 0.559-3.175 0.559zM99.655 27.077c1.305 0 2.406-0.256 3.301-0.769 0.904-0.513 1.585-1.175 2.042-1.986 0.466-0.811 0.699-1.664 0.699-2.559v-3.021c-0.14 0.168-0.448 0.322-0.923 0.462-0.466 0.131-1.007 0.247-1.622 0.35-0.606 0.093-1.198 0.177-1.776 0.252-0.569 0.065-1.030 0.121-1.385 0.168-0.858 0.112-1.66 0.294-2.406 0.545-0.737 0.242-1.333 0.611-1.79 1.105-0.448 0.485-0.671 1.147-0.671 1.986 0 1.147 0.424 2.014 1.273 2.601 0.858 0.578 1.944 0.867 3.259 0.867zM124.696 29.538v-2.517l12.196-15.664v-0.224h-11.804v-3.077h16.056v2.629l-11.86 15.552v0.224h12.252v3.077h-16.839zM152.547 30.042c-1.361 0-2.597-0.256-3.706-0.769-1.109-0.522-1.991-1.273-2.643-2.252-0.653-0.988-0.979-2.182-0.979-3.58 0-1.231 0.242-2.228 0.727-2.993 0.485-0.774 1.133-1.38 1.944-1.818s1.706-0.765 2.685-0.979c0.988-0.224 1.981-0.401 2.979-0.531 1.305-0.168 2.364-0.294 3.175-0.378 0.82-0.093 1.417-0.247 1.79-0.462 0.382-0.214 0.573-0.587 0.573-1.119v-0.112c0-1.38-0.378-2.452-1.133-3.217-0.746-0.765-1.879-1.147-3.399-1.147-1.576 0-2.811 0.345-3.706 1.035s-1.524 1.427-1.888 2.21l-3.133-1.119c0.559-1.305 1.305-2.322 2.238-3.049 0.942-0.737 1.968-1.249 3.077-1.538 1.119-0.298 2.219-0.448 3.301-0.448 0.69 0 1.482 0.084 2.378 0.252 0.904 0.159 1.776 0.49 2.615 0.993 0.849 0.504 1.552 1.263 2.112 2.28s0.839 2.378 0.839 4.084v14.154h-3.301v-2.909h-0.168c-0.224 0.466-0.597 0.965-1.119 1.496s-1.217 0.984-2.084 1.357c-0.867 0.373-1.925 0.559-3.175 0.559zM153.051 27.077c1.305 0 2.405-0.256 3.301-0.769 0.904-0.513 1.585-1.175 2.042-1.986 0.466-0.811 0.699-1.664 0.699-2.559v-3.021c-0.14 0.168-0.447 0.322-0.923 0.462-0.466 0.131-1.007 0.247-1.622 0.35-0.606 0.093-1.198 0.177-1.776 0.252-0.569 0.065-1.030 0.121-1.385 0.168-0.858 0.112-1.66 0.294-2.405 0.545-0.737 0.242-1.333 0.611-1.79 1.105-0.447 0.485-0.671 1.147-0.671 1.986 0 1.147 0.424 2.014 1.273 2.601 0.858 0.578 1.944 0.867 3.259 0.867zM183.241 12.867l-2.965 0.839c-0.186-0.494-0.462-0.974-0.825-1.441-0.354-0.476-0.839-0.867-1.455-1.175s-1.403-0.462-2.364-0.462c-1.315 0-2.41 0.303-3.287 0.909-0.867 0.597-1.301 1.357-1.301 2.28 0 0.82 0.299 1.469 0.895 1.944s1.529 0.872 2.797 1.189l3.189 0.783c1.921 0.466 3.352 1.179 4.294 2.14 0.942 0.951 1.413 2.177 1.413 3.678 0 1.231-0.354 2.331-1.063 3.301-0.699 0.97-1.679 1.734-2.937 2.294s-2.723 0.839-4.392 0.839c-2.191 0-4.005-0.476-5.441-1.426s-2.345-2.34-2.727-4.168l3.133-0.783c0.298 1.156 0.863 2.023 1.692 2.601 0.839 0.578 1.935 0.867 3.287 0.867 1.538 0 2.76-0.326 3.664-0.979 0.914-0.662 1.371-1.455 1.371-2.378 0-0.746-0.261-1.371-0.783-1.874-0.522-0.513-1.324-0.895-2.405-1.147l-3.581-0.839c-1.967-0.466-3.412-1.189-4.335-2.168-0.914-0.988-1.371-2.224-1.371-3.706 0-1.212 0.34-2.284 1.021-3.217 0.69-0.932 1.627-1.664 2.811-2.196 1.193-0.531 2.545-0.797 4.056-0.797 2.126 0 3.795 0.466 5.007 1.399 1.221 0.932 2.089 2.163 2.601 3.692zM197.55 8.056v2.797h-11.133v-2.797h11.133zM189.662 2.909h3.301v20.476c0 0.932 0.135 1.632 0.405 2.098 0.28 0.457 0.634 0.765 1.063 0.923 0.438 0.149 0.9 0.224 1.385 0.224 0.364 0 0.662-0.019 0.895-0.056 0.233-0.047 0.419-0.084 0.56-0.112l0.671 2.965c-0.224 0.084-0.536 0.168-0.937 0.252-0.401 0.093-0.909 0.14-1.524 0.14-0.932 0-1.846-0.2-2.741-0.601-0.886-0.401-1.622-1.012-2.21-1.832-0.578-0.82-0.867-1.855-0.867-3.105v-21.371zM202.121 29.538v-21.483h3.189v3.245h0.224c0.392-1.063 1.1-1.925 2.126-2.587s2.182-0.993 3.469-0.993c0.242 0 0.545 0.005 0.909 0.014s0.639 0.023 0.825 0.042v3.357c-0.112-0.028-0.368-0.070-0.769-0.126-0.392-0.065-0.807-0.098-1.245-0.098-1.044 0-1.977 0.219-2.797 0.657-0.811 0.429-1.455 1.026-1.93 1.79-0.466 0.755-0.699 1.618-0.699 2.587v13.594h-3.301zM215.766 29.538v-2.517l12.196-15.664v-0.224h-11.804v-3.077h16.056v2.629l-11.86 15.552v0.224h12.252v3.077h-16.839zM245.686 29.986c-2.070 0-3.856-0.457-5.357-1.371-1.492-0.923-2.643-2.21-3.455-3.86-0.802-1.66-1.203-3.59-1.203-5.79s0.401-4.14 1.203-5.818c0.811-1.688 1.939-3.002 3.385-3.944 1.455-0.951 3.151-1.427 5.091-1.427 1.118 0 2.223 0.186 3.314 0.559 1.093 0.373 2.085 0.979 2.981 1.818 0.894 0.83 1.607 1.93 2.139 3.301s0.798 3.058 0.798 5.063v1.399h-16.56v-2.853h13.202c0-1.212-0.241-2.294-0.726-3.245-0.478-0.951-1.157-1.702-2.043-2.252-0.876-0.55-1.91-0.825-3.105-0.825-1.315 0-2.452 0.326-3.413 0.979-0.951 0.643-1.683 1.483-2.196 2.518s-0.769 2.145-0.769 3.329v1.902c0 1.622 0.28 2.998 0.839 4.126 0.569 1.119 1.357 1.972 2.364 2.559 1.007 0.578 2.177 0.867 3.51 0.867 0.866 0 1.651-0.121 2.351-0.364 0.709-0.252 1.319-0.625 1.831-1.119 0.512-0.503 0.908-1.128 1.189-1.874l3.188 0.895c-0.335 1.082-0.898 2.033-1.691 2.853-0.793 0.811-1.772 1.445-2.937 1.902-1.167 0.448-2.476 0.671-3.931 0.671zM258.594 29.538v-2.517l12.194-15.664v-0.224h-11.803v-3.077h16.054v2.629l-11.86 15.552v0.224h12.251v3.077h-16.837zM266.816 4.476c-0.642 0-1.196-0.219-1.664-0.657-0.455-0.438-0.684-0.965-0.684-1.58s0.229-1.142 0.684-1.58c0.468-0.438 1.022-0.657 1.664-0.657 0.645 0 1.194 0.219 1.652 0.657 0.465 0.438 0.699 0.965 0.699 1.58s-0.234 1.142-0.699 1.58c-0.458 0.438-1.007 0.657-1.652 0.657zM288.234 29.986c-1.94 0-3.641-0.462-5.105-1.385-1.455-0.923-2.592-2.214-3.412-3.874-0.812-1.66-1.216-3.599-1.216-5.818 0-2.238 0.404-4.191 1.216-5.86 0.82-1.669 1.957-2.965 3.412-3.888 1.465-0.923 3.166-1.385 5.105-1.385s3.638 0.462 5.090 1.385c1.465 0.923 2.602 2.219 3.414 3.888 0.82 1.669 1.231 3.622 1.231 5.86 0 2.219-0.411 4.159-1.231 5.818-0.812 1.66-1.95 2.951-3.414 3.874-1.452 0.923-3.151 1.385-5.090 1.385zM288.234 27.021c1.474 0 2.686-0.378 3.638-1.133 0.95-0.755 1.654-1.748 2.11-2.979 0.458-1.231 0.687-2.564 0.687-4s-0.229-2.774-0.687-4.014c-0.455-1.24-1.159-2.242-2.11-3.007-0.953-0.765-2.164-1.147-3.638-1.147-1.472 0-2.686 0.382-3.636 1.147s-1.654 1.767-2.112 3.007c-0.458 1.24-0.684 2.578-0.684 4.014s0.226 2.769 0.684 4c0.458 1.231 1.162 2.224 2.112 2.979s2.164 1.133 3.636 1.133zM305.915 16.615v12.923h-3.301v-21.483h3.188v3.357h0.281c0.502-1.091 1.268-1.967 2.294-2.629 1.024-0.671 2.348-1.007 3.97-1.007 1.455 0 2.727 0.298 3.818 0.895 1.093 0.587 1.94 1.482 2.545 2.685 0.608 1.193 0.911 2.704 0.911 4.531v13.65h-3.301v-13.427c0-1.688-0.438-3.002-1.314-3.944-0.876-0.951-2.080-1.427-3.609-1.427-1.054 0-1.996 0.228-2.826 0.685-0.82 0.457-1.467 1.124-1.945 2-0.475 0.876-0.711 1.939-0.711 3.189zM334.265 29.986c-2.070 0-3.855-0.457-5.356-1.371-1.492-0.923-2.644-2.21-3.454-3.86-0.802-1.66-1.204-3.59-1.204-5.79s0.401-4.14 1.204-5.818c0.81-1.688 1.937-3.002 3.385-3.944 1.452-0.951 3.151-1.427 5.090-1.427 1.118 0 2.223 0.186 3.313 0.559 1.093 0.373 2.085 0.979 2.981 1.818 0.894 0.83 1.607 1.93 2.139 3.301s0.798 3.058 0.798 5.063v1.399h-16.561v-2.853h13.204c0-1.212-0.241-2.294-0.726-3.245-0.478-0.951-1.157-1.702-2.043-2.252-0.876-0.55-1.91-0.825-3.104-0.825-1.314 0-2.452 0.326-3.414 0.979-0.95 0.643-1.681 1.483-2.196 2.518-0.512 1.035-0.768 2.145-0.768 3.329v1.902c0 1.622 0.278 2.998 0.839 4.126 0.569 1.119 1.356 1.972 2.363 2.559 1.007 0.578 2.176 0.867 3.51 0.867 0.866 0 1.652-0.121 2.351-0.364 0.709-0.252 1.319-0.625 1.831-1.119 0.512-0.503 0.908-1.128 1.189-1.874l3.188 0.895c-0.335 1.082-0.898 2.033-1.691 2.853-0.793 0.811-1.772 1.445-2.937 1.902-1.167 0.448-2.476 0.671-3.931 0.671zM365.295 15.217c0-1.529 0.374-2.923 1.12-4.182s1.748-2.261 3.006-3.007c1.26-0.746 2.654-1.119 4.182-1.119 1.324 0 2.545 0.284 3.665 0.853 1.127 0.569 2.060 1.347 2.796 2.336 0.736 0.979 1.194 2.089 1.371 3.329h-3.385c-0.187-0.96-0.704-1.744-1.553-2.35-0.847-0.615-1.812-0.923-2.895-0.923-0.933 0-1.78 0.228-2.545 0.685-0.763 0.457-1.376 1.068-1.831 1.832-0.458 0.765-0.687 1.613-0.687 2.545s0.229 1.781 0.687 2.545c0.455 0.765 1.068 1.375 1.831 1.832 0.766 0.457 1.612 0.685 2.545 0.685 1.083 0 1.996-0.303 2.742-0.909 0.756-0.615 1.231-1.403 1.425-2.364h3.385c-0.177 1.24-0.61 2.354-1.3 3.343-0.689 0.979-1.575 1.753-2.658 2.322-1.071 0.569-2.27 0.853-3.594 0.853-1.529 0-2.922-0.373-4.182-1.119-1.258-0.746-2.26-1.748-3.006-3.007s-1.12-2.653-1.12-4.182zM373.462 29.986c-2.031 0-3.943-0.382-5.733-1.147-1.782-0.765-3.353-1.823-4.714-3.175-1.351-1.361-2.415-2.932-3.188-4.713-0.766-1.781-1.142-3.692-1.135-5.734 0.010-2.042 0.396-3.953 1.162-5.734 0.773-1.781 1.836-3.347 3.188-4.699 1.354-1.361 2.919-2.424 4.702-3.189 1.78-0.765 3.687-1.147 5.718-1.147 2.043 0 3.953 0.382 5.735 1.147 1.79 0.765 3.358 1.827 4.699 3.189 1.351 1.352 2.41 2.918 3.175 4.699 0.763 1.781 1.152 3.692 1.159 5.734 0.010 2.042-0.367 3.953-1.132 5.734-0.763 1.781-1.822 3.352-3.175 4.713-1.351 1.352-2.922 2.41-4.711 3.175-1.792 0.765-3.707 1.147-5.75 1.147zM373.462 26.741c1.595 0 3.092-0.298 4.49-0.895s2.626-1.422 3.68-2.476c1.054-1.054 1.878-2.275 2.474-3.664 0.598-1.399 0.891-2.89 0.881-4.476-0.010-1.594-0.313-3.091-0.908-4.489s-1.423-2.625-2.476-3.678c-1.054-1.054-2.274-1.879-3.663-2.476-1.391-0.597-2.882-0.895-4.478-0.895-1.585 0-3.072 0.298-4.46 0.895s-2.612 1.427-3.665 2.489c-1.054 1.054-1.883 2.28-2.489 3.678-0.596 1.389-0.901 2.881-0.908 4.476-0.010 1.576 0.283 3.063 0.881 4.462 0.596 1.389 1.42 2.611 2.474 3.664 1.063 1.054 2.289 1.883 3.68 2.489 1.398 0.597 2.895 0.895 4.487 0.895zM404.741 29.538v-2.517l9.455-10.35c1.11-1.212 2.023-2.266 2.742-3.161 0.719-0.904 1.25-1.753 1.595-2.545 0.354-0.802 0.532-1.641 0.532-2.518 0-1.007-0.244-1.879-0.729-2.615-0.475-0.737-1.127-1.305-1.957-1.706s-1.762-0.601-2.799-0.601c-1.1 0-2.060 0.228-2.88 0.685-0.812 0.448-1.44 1.077-1.888 1.888-0.438 0.811-0.657 1.762-0.657 2.853h-3.301c0-1.678 0.386-3.152 1.159-4.42 0.775-1.268 1.829-2.256 3.163-2.965 1.342-0.709 2.848-1.063 4.517-1.063 1.679 0 3.166 0.354 4.46 1.063 1.297 0.709 2.314 1.664 3.050 2.867s1.105 2.541 1.105 4.014c0 1.054-0.192 2.084-0.574 3.091-0.374 0.998-1.026 2.112-1.959 3.343-0.923 1.221-2.203 2.713-3.845 4.476l-6.434 6.881v0.224h13.314v3.077h-18.070zM437.536 29.93c-2.107 0-3.902-0.574-5.383-1.72-1.482-1.156-2.617-2.83-3.399-5.021-0.783-2.2-1.174-4.858-1.174-7.972 0-3.096 0.391-5.739 1.174-7.93 0.793-2.2 1.93-3.879 3.414-5.035 1.492-1.165 3.281-1.748 5.369-1.748 2.090 0 3.874 0.583 5.359 1.748 1.492 1.156 2.629 2.834 3.412 5.035 0.793 2.191 1.189 4.835 1.189 7.93 0 3.114-0.391 5.772-1.174 7.972-0.785 2.191-1.918 3.865-3.399 5.021-1.482 1.147-3.279 1.72-5.386 1.72zM437.536 26.853c2.090 0 3.712-1.007 4.869-3.021 1.154-2.014 1.733-4.886 1.733-8.615 0-2.48-0.266-4.592-0.798-6.336-0.522-1.744-1.278-3.072-2.265-3.986-0.98-0.914-2.159-1.371-3.54-1.371-2.070 0-3.687 1.021-4.852 3.063-1.167 2.033-1.748 4.909-1.748 8.629 0 2.48 0.261 4.587 0.783 6.322s1.273 3.054 2.252 3.958c0.987 0.904 2.176 1.357 3.564 1.357zM452.416 29.538v-2.517l9.455-10.35c1.11-1.212 2.023-2.266 2.74-3.161 0.719-0.904 1.25-1.753 1.595-2.545 0.354-0.802 0.532-1.641 0.532-2.518 0-1.007-0.241-1.879-0.726-2.615-0.478-0.737-1.13-1.305-1.959-1.706s-1.762-0.601-2.796-0.601c-1.1 0-2.060 0.228-2.882 0.685-0.81 0.448-1.44 1.077-1.888 1.888-0.438 0.811-0.657 1.762-0.657 2.853h-3.301c0-1.678 0.389-3.152 1.162-4.42s1.826-2.256 3.161-2.965c1.344-0.709 2.848-1.063 4.517-1.063 1.679 0 3.166 0.354 4.463 1.063 1.295 0.709 2.311 1.664 3.047 2.867 0.738 1.203 1.105 2.541 1.105 4.014 0 1.054-0.19 2.084-0.574 3.091-0.372 0.998-1.024 2.112-1.957 3.343-0.923 1.221-2.206 2.713-3.847 4.476l-6.432 6.881v0.224h13.314v3.077h-18.070zM475.867 29.538v-2.517l9.455-10.35c1.11-1.212 2.023-2.266 2.742-3.161 0.719-0.904 1.25-1.753 1.595-2.545 0.354-0.802 0.532-1.641 0.532-2.518 0-1.007-0.244-1.879-0.729-2.615-0.475-0.737-1.127-1.305-1.957-1.706s-1.762-0.601-2.799-0.601c-1.1 0-2.060 0.228-2.88 0.685-0.812 0.448-1.44 1.077-1.888 1.888-0.438 0.811-0.657 1.762-0.657 2.853h-3.301c0-1.678 0.386-3.152 1.159-4.42 0.775-1.268 1.829-2.256 3.163-2.965 1.342-0.709 2.848-1.063 4.517-1.063 1.679 0 3.166 0.354 4.46 1.063 1.297 0.709 2.314 1.664 3.050 2.867s1.105 2.541 1.105 4.014c0 1.054-0.192 2.084-0.574 3.091-0.374 0.998-1.026 2.112-1.959 3.343-0.923 1.221-2.203 2.713-3.845 4.476l-6.434 6.881v0.224h13.314v3.077h-18.070z"></path>
</symbol>
<symbol id="icon-logo-full-light" viewBox="0 0 151 32">
<path fill="#003edc" style="fill: var(--color2, #003edc)" d="M14.166 6.303c0.291 0 0.573 0.013 0.855 0.035 0.915 0.078 1.795 0.281 2.619 0.584 2.081 0.769 3.846 2.2 5.038 4.046-0.496-3.838-2.803-7.102-6.030-8.87-1.658-0.912-3.56-1.431-5.581-1.431-1.705 0-4.355 0.363-5.816 1.024-2.188 0.8-3.619 2.101-5.252 3.575l6.765 4.275c1.85-1.997 4.478-3.237 7.401-3.237z"></path>
<path fill="#003edc" style="fill: var(--color2, #003edc)" d="M21.289 15.941h-0.004c-0.205 0.017-0.41 0.030-0.611 0.039h-0.051c-0.85 0.022-1.709-0.065-2.543-0.259-1.081-0.251-2.132-0.679-3.102-1.297-0.641-0.402-1.244-0.886-1.799-1.448-0.158-0.156-0.308-0.32-0.449-0.484-1.038-1.193-1.752-2.563-2.149-4.007-1.154 0.553-2.188 1.323-3.051 2.248-0.996 1.068-1.765 2.351-2.235 3.774-0.094 0.29-0.18 0.588-0.252 0.895l-0.205 1.167-0.816 4.677-0.192 1.089 0.709-0.614 1.192-1.037-0.192-2.611c-0.043-0.264-0.064-0.532-0.064-0.808v-0.026l6.914 0.156c-1.124 0.519-3.107 2.265-3.88 3.086l-0.009 0.013c-0.175 0.186-0.342 0.376-0.504 0.575l-0.59 2.395-0.068 0.277h0.004l-0.167 0.674-0.030 0.125-1.671 6.795 6.303-3.411 0.060-0.315 0.239-1.271c0.026-0.121 0.051-0.225 0.077-0.315 0.068-0.259 0.103-0.385 0.145-0.501 0.068-0.216 0.145-0.428 0.218-0.618 1.44-3.791 3.248-4.655 3.128-4.655 0.094-0.078 0.197-0.151 0.299-0.22 0.876-0.618 2.021-1.063 3.261-1.236 0.188-0.026 0.402-0.048 0.624-0.052l0.060-0.004 1.141-1.284 1.508-1.703-0.081 0.017c-0.389 0.082-0.778 0.143-1.167 0.177z"></path>
<path fill="#f5f0ec" style="fill: var(--color1, #f5f0ec)" d="M94.571 19.187c-0.496-0.545-1.094-0.916-1.791-1.141-0.709-0.225-1.632-0.45-2.791-0.67-0.953-0.169-1.688-0.342-2.213-0.493-0.538-0.16-0.991-0.402-1.35-0.743-0.359-0.346-0.538-0.791-0.538-1.344 0-0.726 0.316-1.31 0.961-1.759 0.633-0.445 1.577-0.674 2.833-0.674 1.654 0 3.090 0.415 4.286 1.262l0.859-1.599c-0.615-0.406-1.385-0.735-2.32-0.99-0.949-0.259-1.889-0.389-2.825-0.389-1.816 0-3.226 0.398-4.239 1.184-1.013 0.778-1.513 1.794-1.513 3.017 0 0.99 0.252 1.768 0.756 2.325 0.504 0.566 1.115 0.955 1.833 1.193 0.727 0.233 1.675 0.458 2.859 0.683 0.885 0.151 1.59 0.298 2.124 0.458 0.543 0.16 0.983 0.393 1.329 0.7 0.35 0.311 0.526 0.739 0.526 1.271 0 0.769-0.316 1.366-0.953 1.781s-1.615 0.627-2.944 0.627c-1 0-1.961-0.147-2.876-0.458-0.927-0.311-1.684-0.7-2.295-1.193l-0.889 1.569c0.611 0.523 1.457 0.96 2.53 1.301 1.077 0.35 2.214 0.523 3.393 0.523 1.876 0 3.35-0.389 4.41-1.133 1.060-0.756 1.59-1.777 1.59-3.069 0-0.947-0.244-1.694-0.752-2.239z"></path>
<path fill="#f5f0ec" style="fill: var(--color1, #f5f0ec)" d="M139.611 21.698l1.467 1.011c-0.577 0.951-1.36 1.677-2.351 2.165-1 0.501-2.12 0.748-3.351 0.748-1.444 0-2.73-0.32-3.859-0.951-1.137-0.64-2.021-1.526-2.675-2.676-0.645-1.15-0.97-2.442-0.97-3.881 0-1.426 0.325-2.719 0.97-3.855 0.654-1.141 1.538-2.027 2.675-2.658 1.128-0.635 2.415-0.955 3.859-0.955 1.252 0 2.372 0.255 3.364 0.743 0.991 0.493 1.76 1.215 2.337 2.166l-1.467 1.011c-0.483-0.726-1.093-1.266-1.833-1.643-0.735-0.363-1.537-0.54-2.401-0.54-1.055 0-2.004 0.233-2.833 0.713-0.846 0.48-1.5 1.15-1.974 2.023-0.462 0.886-0.692 1.876-0.692 2.995 0 1.141 0.231 2.144 0.692 3.017 0.474 0.864 1.128 1.534 1.974 2.014 0.829 0.471 1.778 0.718 2.833 0.718 0.864 0 1.667-0.181 2.401-0.536 0.74-0.363 1.351-0.895 1.833-1.629z"></path>
<path fill="#f5f0ec" style="fill: var(--color1, #f5f0ec)" d="M149.964 23.211c-0.273 0.246-0.601 0.428-0.979 0.553-0.38 0.143-0.768 0.203-1.179 0.203-0.816 0-1.436-0.238-1.868-0.691-0.431-0.45-0.653-1.12-0.653-1.997v-8.783h4.427v-1.681h-4.427v-3.22h-1.957v13.793c0 1.361 0.368 2.421 1.103 3.164 0.739 0.752 1.791 1.124 3.153 1.124 0.591 0 1.159-0.087 1.705-0.268 0.539-0.182 1-0.437 1.372-0.765l-0.697-1.431z"></path>
<path fill="#f5f0ec" style="fill: var(--color1, #f5f0ec)" d="M34.983 21.267c-0.235 0.635-0.611 1.124-1.167 1.457-0.543 0.328-1.167 0.488-1.867 0.488-0.722 0-1.286-0.147-1.697-0.463-0.41-0.311-0.624-0.735-0.624-1.271 0-1.115 0.842-1.677 2.53-1.677h2.825v1.465zM37.32 12.835c-1.175-1.059-2.863-1.595-5.060-1.595-1.132 0-2.248 0.151-3.333 0.454-1.077 0.307-2.013 0.735-2.782 1.284l1.474 2.905c0.513-0.406 1.137-0.731 1.867-0.977 0.726-0.233 1.466-0.354 2.222-0.354 1.094 0 1.906 0.242 2.444 0.73 0.555 0.488 0.829 1.189 0.829 2.092h-3.273c-2.068 0-3.607 0.389-4.602 1.145-0.996 0.765-1.487 1.824-1.487 3.155 0 0.83 0.209 1.582 0.637 2.23 0.419 0.661 1.030 1.18 1.825 1.556 0.803 0.363 1.748 0.558 2.846 0.558 2.107 0 3.543-0.67 4.312-2.001v1.789h3.85v-8.191c0-2.131-0.586-3.726-1.769-4.78z"></path>
<path fill="#f5f0ec" style="fill: var(--color1, #f5f0ec)" d="M60.42 17.567h-5.158v-9.825h5.158c1.919 0 3.385 0.424 4.393 1.279 1.013 0.843 1.517 2.053 1.517 3.644 0 1.556-0.504 2.753-1.517 3.618-1.008 0.851-2.474 1.284-4.393 1.284zM50.361 21.514c-0.684 0.718-1.547 1.085-2.581 1.085-1.055 0-1.923-0.367-2.607-1.085-0.697-0.713-1.038-1.673-1.038-2.887 0-1.206 0.342-2.17 1.038-2.892 0.684-0.722 1.551-1.085 2.607-1.085 1.034 0 1.897 0.363 2.581 1.085s1.021 1.686 1.021 2.892c0 1.215-0.337 2.174-1.021 2.887zM63.963 18.83c1.41-0.467 2.504-1.228 3.273-2.282 0.761-1.059 1.15-2.343 1.15-3.881 0-2.088-0.705-3.73-2.107-4.923-1.406-1.193-3.342-1.79-5.807-1.79l-9.166 0.065v6.955c-1.017-1.158-2.431-1.738-4.239-1.738-1.337 0-2.551 0.307-3.624 0.916-1.085 0.597-1.927 1.457-2.551 2.581-0.615 1.124-0.915 2.416-0.915 3.894 0 1.474 0.299 2.775 0.915 3.89 0.624 1.12 1.466 1.984 2.551 2.585 1.073 0.609 2.286 0.912 3.624 0.912 1.927 0 3.406-0.618 4.427-1.867v1.655h3.927v-6.475h5.051c0.539 0 1.051-0.026 1.551-0.082l4.423 6.298h2.248l-4.73-6.713z"></path>
<path fill="#f5f0ec" style="fill: var(--color1, #f5f0ec)" d="M71.232 17.259c0.128-1.465 0.662-2.632 1.624-3.544 0.944-0.903 2.115-1.353 3.517-1.353 1.423 0 2.602 0.45 3.564 1.353 0.949 0.912 1.487 2.079 1.611 3.544h-10.316zM83.437 18.119c0-1.448-0.308-2.74-0.919-3.864-0.611-1.132-1.444-2.019-2.517-2.645-1.068-0.644-2.274-0.964-3.628-0.964-1.346 0-2.555 0.32-3.632 0.964-1.077 0.627-1.931 1.513-2.543 2.654-0.62 1.141-0.927 2.429-0.927 3.856 0 1.439 0.316 2.732 0.97 3.873 0.641 1.124 1.538 2.023 2.688 2.663 1.158 0.653 2.479 0.973 3.974 0.973 1.158 0 2.222-0.203 3.192-0.618 0.97-0.406 1.782-1.003 2.423-1.794l-1.103-1.292c-0.551 0.644-1.214 1.124-1.966 1.452-0.756 0.324-1.59 0.493-2.496 0.493-1.598 0-2.927-0.48-3.983-1.418-1.043-0.942-1.619-2.174-1.739-3.713h12.17l0.034-0.618z"></path>
<path fill="#f5f0ec" style="fill: var(--color1, #f5f0ec)" d="M94.572 19.183c0.508 0.545 0.748 1.288 0.748 2.239 0 1.288-0.526 2.313-1.59 3.069-1.055 0.748-2.53 1.133-4.406 1.133-1.179 0-2.316-0.173-3.393-0.523-1.077-0.341-1.919-0.778-2.53-1.301l0.885-1.569c0.611 0.493 1.372 0.886 2.299 1.197 0.914 0.307 1.876 0.458 2.876 0.458 1.329 0 2.308-0.216 2.94-0.631 0.645-0.415 0.961-1.011 0.961-1.781 0-0.532-0.179-0.96-0.53-1.266-0.346-0.311-0.791-0.545-1.325-0.705-0.538-0.16-1.243-0.311-2.132-0.458-1.179-0.225-2.128-0.449-2.855-0.683-0.718-0.233-1.329-0.627-1.833-1.193-0.504-0.553-0.761-1.331-0.761-2.325 0-1.223 0.509-2.239 1.521-3.017 1.009-0.787 2.423-1.18 4.235-1.18 0.936 0 1.876 0.125 2.825 0.38 0.94 0.259 1.705 0.588 2.32 0.994l-0.855 1.599c-1.201-0.843-2.637-1.258-4.29-1.258-1.252 0-2.201 0.22-2.833 0.67-0.645 0.45-0.961 1.033-0.961 1.759 0 0.553 0.179 1.003 0.538 1.344s0.812 0.584 1.35 0.743c0.526 0.151 1.265 0.32 2.213 0.493 1.158 0.225 2.085 0.445 2.791 0.67 0.697 0.225 1.295 0.597 1.791 1.141z"></path>
<path fill="#f5f0ec" style="fill: var(--color1, #f5f0ec)" d="M109.25 21.119c-0.479 0.882-1.12 1.556-1.953 2.031-0.833 0.471-1.748 0.718-2.769 0.718-1.038 0-1.966-0.247-2.773-0.718-0.821-0.475-1.474-1.15-1.94-2.031-0.474-0.877-0.705-1.876-0.705-3 0-1.115 0.231-2.105 0.705-2.974 0.466-0.873 1.119-1.543 1.94-2.032 0.808-0.484 1.735-0.726 2.773-0.726 1.021 0 1.936 0.242 2.769 0.726 0.833 0.489 1.474 1.159 1.953 2.032 0.47 0.869 0.701 1.859 0.701 2.974 0 1.124-0.231 2.122-0.701 3zM110.972 14.229c-0.62-1.132-1.496-2.014-2.598-2.645-1.107-0.618-2.342-0.938-3.705-0.938-1.218 0-2.316 0.268-3.286 0.791-0.957 0.523-1.735 1.271-2.329 2.239v-2.909h-1.885v20.147h1.97v-8.195c0.598 0.947 1.385 1.673 2.329 2.161 0.961 0.501 2.021 0.748 3.201 0.748 1.385 0 2.628-0.311 3.722-0.938 1.098-0.627 1.961-1.504 2.581-2.645 0.637-1.141 0.944-2.442 0.944-3.925 0-1.448-0.308-2.749-0.944-3.89z"></path>
<path fill="#f5f0ec" style="fill: var(--color1, #f5f0ec)" d="M114.889 17.259c0.137-1.465 0.671-2.632 1.624-3.544 0.944-0.903 2.128-1.353 3.526-1.353 1.414 0 2.607 0.45 3.555 1.353 0.949 0.912 1.487 2.079 1.611 3.544h-10.316zM127.093 18.119c0-1.448-0.308-2.74-0.919-3.864-0.603-1.132-1.444-2.019-2.517-2.645-1.068-0.644-2.282-0.964-3.619-0.964-1.346 0-2.56 0.32-3.645 0.964-1.077 0.627-1.927 1.513-2.538 2.654-0.62 1.141-0.927 2.429-0.927 3.856 0 1.439 0.325 2.732 0.97 3.873 0.641 1.124 1.538 2.023 2.696 2.663 1.15 0.653 2.479 0.973 3.961 0.973 1.171 0 2.235-0.203 3.205-0.618 0.97-0.406 1.769-1.003 2.414-1.794l-1.107-1.292c-0.547 0.644-1.201 1.124-1.961 1.452-0.761 0.324-1.59 0.493-2.483 0.493-1.615 0-2.944-0.48-3.987-1.418-1.051-0.942-1.632-2.174-1.748-3.713h12.17l0.034-0.618z"></path>
<path fill="#f5f0ec" style="fill: var(--color1, #f5f0ec)" d="M150.665 24.637c-0.368 0.333-0.833 0.588-1.372 0.769-0.547 0.181-1.115 0.268-1.705 0.268-1.359 0-2.413-0.376-3.153-1.12-0.735-0.748-1.107-1.802-1.107-3.168v-13.793h1.961v3.22h4.428v1.681h-4.428v8.787c0 0.873 0.223 1.543 0.655 1.993 0.431 0.458 1.055 0.691 1.867 0.691 0.411 0 0.799-0.065 1.18-0.203 0.38-0.125 0.705-0.307 0.979-0.553l0.696 1.426z"></path>
</symbol>
<symbol id="icon-Button-1" viewBox="0 0 195 32">
<path fill="#1b5b31" style="fill: var(--color3, #1b5b31)" d="M6.241 20.571h-4.104v-13.299h4.286c1.29 0 2.394 0.266 3.312 0.799 0.918 0.528 1.621 1.288 2.11 2.279 0.489 0.987 0.734 2.169 0.734 3.545 0 1.385-0.247 2.578-0.74 3.578-0.494 0.996-1.212 1.762-2.156 2.299-0.944 0.532-2.091 0.799-3.442 0.799zM3.748 19.143h2.39c1.1 0 2.011-0.212 2.734-0.636s1.262-1.028 1.617-1.812c0.355-0.784 0.532-1.716 0.532-2.799 0-1.074-0.175-1.998-0.526-2.773-0.351-0.779-0.874-1.377-1.571-1.792-0.697-0.42-1.565-0.63-2.604-0.63h-2.571v10.442zM19.124 20.779c-0.9 0-1.691-0.214-2.37-0.643-0.675-0.429-1.203-1.028-1.584-1.799-0.377-0.771-0.565-1.671-0.565-2.701 0-1.039 0.188-1.946 0.565-2.721 0.381-0.775 0.909-1.377 1.584-1.805 0.68-0.429 1.47-0.643 2.37-0.643s1.688 0.214 2.364 0.643c0.68 0.429 1.208 1.030 1.584 1.805 0.381 0.775 0.571 1.682 0.571 2.721 0 1.030-0.191 1.931-0.571 2.701-0.377 0.77-0.905 1.37-1.584 1.799-0.675 0.429-1.463 0.643-2.364 0.643zM19.124 19.403c0.684 0 1.247-0.175 1.688-0.526s0.768-0.812 0.981-1.383 0.318-1.19 0.318-1.857c0-0.667-0.106-1.288-0.318-1.864s-0.539-1.041-0.981-1.396c-0.442-0.355-1.004-0.532-1.688-0.532s-1.247 0.178-1.688 0.532c-0.442 0.355-0.768 0.82-0.981 1.396s-0.318 1.197-0.318 1.864c0 0.667 0.106 1.286 0.318 1.857s0.539 1.032 0.981 1.383c0.442 0.351 1.004 0.526 1.688 0.526zM27.903 20.571l-3.039-9.974h1.61l2.156 7.636h0.104l2.13-7.636h1.636l2.104 7.61h0.104l2.156-7.61h1.61l-3.039 9.974h-1.507l-2.182-7.662h-0.156l-2.182 7.662h-1.506zM40.501 20.571v-9.974h1.532v9.974h-1.532zM41.28 8.935c-0.299 0-0.556-0.102-0.773-0.305-0.212-0.203-0.318-0.448-0.318-0.734s0.106-0.53 0.318-0.734c0.216-0.203 0.474-0.305 0.773-0.305s0.554 0.102 0.766 0.305c0.216 0.203 0.325 0.448 0.325 0.734s-0.108 0.53-0.325 0.734c-0.212 0.203-0.468 0.305-0.766 0.305zM49.022 20.779c-0.961 0-1.79-0.212-2.487-0.636-0.693-0.429-1.227-1.026-1.604-1.792-0.372-0.77-0.558-1.667-0.558-2.688s0.186-1.922 0.558-2.701c0.377-0.784 0.9-1.394 1.571-1.831 0.675-0.442 1.463-0.662 2.364-0.662 0.52 0 1.032 0.087 1.539 0.26s0.968 0.455 1.383 0.844c0.416 0.385 0.747 0.896 0.993 1.532s0.37 1.42 0.37 2.351v0.649h-7.688v-1.325h6.13c0-0.563-0.113-1.065-0.338-1.506-0.221-0.441-0.537-0.79-0.948-1.045-0.407-0.255-0.887-0.383-1.442-0.383-0.61 0-1.139 0.152-1.584 0.455-0.441 0.299-0.781 0.688-1.019 1.169s-0.357 0.996-0.357 1.546v0.883c0 0.753 0.13 1.392 0.39 1.916 0.264 0.52 0.63 0.916 1.097 1.188 0.468 0.268 1.011 0.403 1.63 0.403 0.403 0 0.766-0.056 1.091-0.169 0.329-0.117 0.613-0.29 0.851-0.519 0.238-0.234 0.422-0.524 0.552-0.87l1.48 0.416c-0.156 0.502-0.418 0.944-0.786 1.325-0.368 0.377-0.822 0.671-1.364 0.883-0.541 0.208-1.149 0.312-1.825 0.312zM59.249 20.779c-0.831 0-1.565-0.21-2.201-0.63-0.636-0.424-1.134-1.022-1.493-1.792-0.359-0.775-0.539-1.691-0.539-2.747 0-1.048 0.18-1.957 0.539-2.727s0.859-1.366 1.5-1.786c0.641-0.42 1.381-0.63 2.221-0.63 0.649 0 1.162 0.108 1.539 0.325 0.381 0.212 0.671 0.455 0.87 0.727 0.204 0.268 0.361 0.489 0.474 0.662h0.13v-4.909h1.532v13.299h-1.48v-1.532h-0.182c-0.113 0.182-0.273 0.411-0.481 0.688-0.208 0.273-0.504 0.517-0.89 0.734-0.385 0.212-0.898 0.318-1.539 0.318zM59.457 19.403c0.615 0 1.134-0.16 1.558-0.481 0.424-0.325 0.747-0.773 0.968-1.344 0.221-0.576 0.331-1.24 0.331-1.994 0-0.745-0.108-1.396-0.325-1.955-0.216-0.563-0.537-1-0.961-1.312-0.424-0.316-0.948-0.474-1.571-0.474-0.649 0-1.191 0.167-1.623 0.5-0.429 0.329-0.751 0.777-0.968 1.344-0.212 0.563-0.318 1.195-0.318 1.896 0 0.71 0.108 1.355 0.325 1.935 0.221 0.576 0.545 1.035 0.974 1.377 0.433 0.338 0.97 0.506 1.61 0.506zM66.554 20.571v-1.169l5.662-7.273v-0.104h-5.48v-1.429h7.454v1.221l-5.507 7.221v0.104h5.688v1.429h-7.818zM88.941 12.831l-1.377 0.39c-0.087-0.229-0.214-0.452-0.383-0.669-0.165-0.221-0.39-0.403-0.675-0.546s-0.652-0.214-1.097-0.214c-0.61 0-1.119 0.141-1.526 0.422-0.403 0.277-0.604 0.63-0.604 1.058 0 0.381 0.138 0.682 0.416 0.903s0.71 0.405 1.299 0.552l1.481 0.364c0.892 0.216 1.556 0.548 1.993 0.994 0.437 0.442 0.656 1.011 0.656 1.708 0 0.571-0.164 1.082-0.493 1.532-0.325 0.45-0.779 0.805-1.364 1.065s-1.264 0.39-2.039 0.39c-1.017 0-1.859-0.221-2.526-0.662s-1.089-1.087-1.266-1.935l1.454-0.364c0.138 0.537 0.4 0.939 0.786 1.208 0.39 0.268 0.898 0.403 1.526 0.403 0.714 0 1.281-0.152 1.701-0.454 0.424-0.307 0.636-0.675 0.636-1.104 0-0.346-0.121-0.636-0.364-0.87-0.242-0.238-0.615-0.416-1.117-0.532l-1.662-0.39c-0.913-0.216-1.584-0.552-2.013-1.006-0.424-0.459-0.636-1.032-0.636-1.721 0-0.563 0.158-1.061 0.474-1.494 0.32-0.433 0.755-0.773 1.305-1.020 0.554-0.247 1.182-0.37 1.883-0.37 0.987 0 1.762 0.216 2.325 0.649 0.567 0.433 0.97 1.004 1.208 1.714zM91.429 20.571v-9.974h1.532v9.974h-1.532zM92.209 8.935c-0.299 0-0.556-0.102-0.773-0.305-0.212-0.203-0.318-0.448-0.318-0.734s0.106-0.53 0.318-0.734c0.216-0.203 0.474-0.305 0.773-0.305s0.554 0.102 0.766 0.305c0.216 0.203 0.325 0.448 0.325 0.734s-0.108 0.53-0.325 0.734c-0.212 0.203-0.468 0.305-0.766 0.305zM99.951 20.779c-0.961 0-1.79-0.212-2.487-0.636-0.693-0.429-1.227-1.026-1.604-1.792-0.372-0.77-0.558-1.667-0.558-2.688s0.186-1.922 0.558-2.701c0.377-0.784 0.9-1.394 1.571-1.831 0.675-0.442 1.463-0.662 2.364-0.662 0.52 0 1.032 0.087 1.539 0.26s0.968 0.455 1.383 0.844c0.416 0.385 0.747 0.896 0.993 1.532s0.37 1.42 0.37 2.351v0.649h-7.688v-1.325h6.13c0-0.563-0.113-1.065-0.338-1.506-0.221-0.441-0.537-0.79-0.948-1.045-0.407-0.255-0.887-0.383-1.442-0.383-0.61 0-1.138 0.152-1.584 0.455-0.442 0.299-0.781 0.688-1.019 1.169s-0.357 0.996-0.357 1.546v0.883c0 0.753 0.13 1.392 0.39 1.916 0.264 0.52 0.63 0.916 1.097 1.188 0.468 0.268 1.011 0.403 1.63 0.403 0.403 0 0.766-0.056 1.091-0.169 0.329-0.117 0.613-0.29 0.851-0.519 0.238-0.234 0.422-0.524 0.552-0.87l1.48 0.416c-0.156 0.502-0.418 0.944-0.786 1.325-0.368 0.377-0.822 0.671-1.364 0.883-0.541 0.208-1.149 0.312-1.825 0.312zM100.002 24.468c-0.532 0-0.974-0.147-1.325-0.442-0.346-0.29-0.519-0.714-0.519-1.273 0-0.32 0.078-0.641 0.234-0.961s0.407-0.63 0.753-0.929c0.346-0.299 0.805-0.578 1.377-0.838l0.701 0.546c-0.39 0.286-0.738 0.589-1.046 0.909s-0.461 0.675-0.461 1.065c0 0.195 0.048 0.346 0.143 0.454 0.095 0.113 0.273 0.169 0.532 0.169 0.195 0 0.368-0.026 0.52-0.078s0.273-0.104 0.364-0.156l0.104 1.143c-0.143 0.091-0.331 0.177-0.565 0.26-0.23 0.087-0.5 0.13-0.812 0.13zM113.814 20.571l-3.039-9.974h1.61l2.156 7.636h0.104l2.129-7.636h1.637l2.104 7.61h0.104l2.155-7.61h1.61l-3.039 9.974h-1.506l-2.182-7.662h-0.155l-2.182 7.662h-1.507zM126.411 20.571v-9.974h1.533v9.974h-1.533zM127.191 8.935c-0.298 0-0.557-0.102-0.773-0.305-0.213-0.203-0.319-0.448-0.319-0.734s0.106-0.53 0.319-0.734c0.216-0.203 0.474-0.305 0.773-0.305s0.554 0.102 0.766 0.305c0.217 0.203 0.325 0.448 0.325 0.734s-0.107 0.53-0.325 0.734c-0.211 0.203-0.467 0.305-0.766 0.305zM134.933 20.779c-0.961 0-1.79-0.212-2.487-0.636-0.693-0.429-1.227-1.026-1.603-1.792-0.373-0.77-0.559-1.667-0.559-2.688s0.186-1.922 0.559-2.701c0.376-0.784 0.899-1.394 1.571-1.831 0.674-0.442 1.463-0.662 2.363-0.662 0.519 0 1.032 0.087 1.538 0.26s0.968 0.455 1.384 0.844c0.415 0.385 0.746 0.896 0.993 1.532s0.37 1.42 0.37 2.351v0.649h-7.689v-1.325h6.13c0-0.563-0.112-1.065-0.337-1.506-0.222-0.441-0.537-0.79-0.949-1.045-0.407-0.255-0.887-0.383-1.441-0.383-0.61 0-1.139 0.152-1.585 0.455-0.441 0.299-0.781 0.688-1.019 1.169-0.238 0.48-0.357 0.996-0.357 1.546v0.883c0 0.753 0.129 1.392 0.39 1.916 0.264 0.52 0.63 0.916 1.097 1.188 0.467 0.268 1.010 0.403 1.63 0.403 0.402 0 0.767-0.056 1.091-0.169 0.328-0.117 0.613-0.29 0.85-0.519 0.238-0.234 0.422-0.524 0.552-0.87l1.48 0.416c-0.155 0.502-0.417 0.944-0.785 1.325-0.368 0.377-0.823 0.671-1.363 0.883-0.542 0.208-1.15 0.312-1.825 0.312zM134.985 24.468c-0.533 0-0.975-0.147-1.326-0.442-0.346-0.29-0.519-0.714-0.519-1.273 0-0.32 0.078-0.641 0.233-0.961 0.157-0.32 0.407-0.63 0.754-0.929 0.346-0.299 0.805-0.578 1.376-0.838l0.702 0.546c-0.39 0.286-0.738 0.589-1.046 0.909s-0.461 0.675-0.461 1.065c0 0.195 0.047 0.346 0.143 0.454 0.095 0.113 0.272 0.169 0.531 0.169 0.195 0 0.368-0.026 0.52-0.078s0.273-0.104 0.363-0.156l0.104 1.143c-0.143 0.091-0.331 0.177-0.565 0.26-0.23 0.087-0.501 0.13-0.811 0.13zM145.446 20.779c-0.935 0-1.741-0.221-2.416-0.662s-1.194-1.050-1.558-1.825c-0.365-0.775-0.546-1.66-0.546-2.656 0-1.013 0.186-1.907 0.559-2.682 0.377-0.779 0.901-1.387 1.571-1.825 0.675-0.442 1.463-0.662 2.363-0.662 0.702 0 1.334 0.13 1.896 0.39 0.563 0.26 1.024 0.623 1.384 1.091 0.359 0.468 0.582 1.013 0.669 1.636h-1.533c-0.117-0.455-0.377-0.857-0.779-1.208-0.398-0.355-0.935-0.532-1.61-0.532-0.598 0-1.121 0.156-1.571 0.468-0.446 0.307-0.794 0.742-1.046 1.305-0.247 0.558-0.37 1.214-0.37 1.968 0 0.77 0.121 1.442 0.363 2.013 0.247 0.571 0.593 1.015 1.040 1.331 0.449 0.316 0.978 0.474 1.584 0.474 0.398 0 0.76-0.069 1.085-0.208s0.599-0.338 0.824-0.598c0.225-0.26 0.385-0.571 0.481-0.935h1.533c-0.087 0.589-0.302 1.119-0.643 1.591-0.337 0.468-0.785 0.84-1.344 1.117-0.554 0.273-1.199 0.409-1.935 0.409zM155.79 20.779c-0.961 0-1.79-0.212-2.487-0.636-0.693-0.429-1.227-1.026-1.603-1.792-0.373-0.77-0.559-1.667-0.559-2.688s0.186-1.922 0.559-2.701c0.376-0.784 0.899-1.394 1.571-1.831 0.674-0.442 1.463-0.662 2.363-0.662 0.519 0 1.032 0.087 1.538 0.26s0.968 0.455 1.384 0.844c0.415 0.385 0.746 0.896 0.993 1.532s0.37 1.42 0.37 2.351v0.649h-7.689v-1.325h6.13c0-0.563-0.112-1.065-0.337-1.506-0.222-0.441-0.537-0.79-0.949-1.045-0.407-0.255-0.887-0.383-1.441-0.383-0.61 0-1.139 0.152-1.585 0.455-0.441 0.299-0.781 0.688-1.019 1.169-0.238 0.48-0.357 0.996-0.357 1.546v0.883c0 0.753 0.129 1.392 0.39 1.916 0.264 0.52 0.63 0.916 1.097 1.188 0.467 0.268 1.010 0.403 1.63 0.403 0.402 0 0.767-0.056 1.091-0.169 0.328-0.117 0.613-0.29 0.85-0.519 0.238-0.234 0.422-0.524 0.552-0.87l1.48 0.416c-0.155 0.502-0.417 0.944-0.785 1.325-0.368 0.377-0.823 0.671-1.363 0.883-0.542 0.208-1.15 0.312-1.825 0.312zM162.25 10.597h1.533v10.701c0 0.615-0.105 1.147-0.318 1.597-0.208 0.45-0.523 0.799-0.949 1.046-0.419 0.247-0.95 0.37-1.591 0.37-0.051 0-0.104 0-0.155 0s-0.104 0-0.155 0v-1.429c0.051 0 0.099 0 0.143 0s0.090 0 0.143 0c0.467 0 0.809-0.139 1.025-0.416 0.217-0.273 0.325-0.662 0.325-1.169v-10.701zM163.005 8.935c-0.299 0-0.557-0.102-0.774-0.305-0.211-0.203-0.318-0.448-0.318-0.734s0.106-0.53 0.318-0.734c0.217-0.203 0.474-0.305 0.774-0.305 0.298 0 0.553 0.102 0.766 0.305 0.216 0.203 0.325 0.448 0.325 0.734s-0.109 0.53-0.325 0.734c-0.213 0.203-0.467 0.305-0.766 0.305z"></path>
<path fill="#1b5b31" style="fill: var(--color3, #1b5b31)" d="M186.28 4.571l-1.023 1.024 7.402 7.392h-15.517v1.455h15.505l-7.391 7.392 1.023 1.024 9.149-9.148-9.149-9.137z"></path>
<path fill="#1b5b31" style="fill: var(--color3, #1b5b31)" d="M195.429 30.857h-195.429v2.286h195.429v-2.286z"></path>
</symbol>
<symbol id="icon-Button" viewBox="0 0 156 32">
<path fill="#1b5b31" style="fill: var(--color3, #1b5b31)" d="M14.485 19.137v-0.642l3.936-5.875h-3.979v-0.784h5.034v0.642l-3.936 5.875h3.979v0.784h-5.034zM23.112 19.251c-0.494 0-0.928-0.118-1.301-0.353-0.371-0.235-0.661-0.564-0.87-0.987-0.207-0.423-0.31-0.917-0.31-1.483 0-0.57 0.103-1.068 0.31-1.494 0.209-0.425 0.499-0.756 0.87-0.991 0.373-0.235 0.807-0.353 1.301-0.353s0.927 0.118 1.298 0.353c0.373 0.235 0.663 0.566 0.87 0.991 0.209 0.425 0.314 0.923 0.314 1.494 0 0.566-0.105 1.060-0.314 1.483-0.207 0.423-0.497 0.752-0.87 0.987-0.371 0.235-0.803 0.353-1.298 0.353zM23.112 18.496c0.376 0 0.684-0.096 0.927-0.289s0.422-0.446 0.538-0.759c0.116-0.314 0.175-0.654 0.175-1.020s-0.058-0.707-0.175-1.023c-0.117-0.316-0.296-0.572-0.538-0.767s-0.551-0.292-0.927-0.292-0.684 0.097-0.927 0.292c-0.242 0.195-0.422 0.45-0.538 0.767s-0.175 0.657-0.175 1.023c0 0.366 0.058 0.706 0.175 1.020s0.296 0.567 0.538 0.759c0.242 0.193 0.551 0.289 0.927 0.289zM26.992 19.137v-7.301h0.841v2.695h0.071c0.062-0.095 0.147-0.216 0.257-0.364 0.112-0.15 0.271-0.283 0.478-0.399 0.209-0.119 0.492-0.178 0.848-0.178 0.461 0 0.867 0.115 1.219 0.346s0.626 0.557 0.824 0.98c0.197 0.423 0.296 0.922 0.296 1.497 0 0.58-0.099 1.083-0.296 1.508-0.197 0.423-0.471 0.751-0.82 0.984-0.349 0.231-0.752 0.346-1.209 0.346-0.352 0-0.633-0.058-0.845-0.175-0.212-0.119-0.374-0.253-0.488-0.403-0.114-0.152-0.202-0.278-0.264-0.378h-0.1v0.841h-0.813zM27.819 16.399c0 0.414 0.061 0.778 0.182 1.094 0.121 0.314 0.298 0.56 0.531 0.738 0.233 0.176 0.518 0.264 0.856 0.264 0.352 0 0.645-0.093 0.881-0.278 0.238-0.188 0.416-0.44 0.535-0.756 0.121-0.318 0.182-0.673 0.182-1.062 0-0.385-0.059-0.732-0.178-1.041-0.116-0.311-0.294-0.557-0.531-0.738-0.235-0.183-0.531-0.274-0.888-0.274-0.342 0-0.63 0.087-0.863 0.26-0.233 0.171-0.409 0.411-0.528 0.72-0.119 0.307-0.178 0.664-0.178 1.073zM34.725 19.266c-0.347 0-0.662-0.065-0.945-0.196-0.283-0.133-0.507-0.324-0.674-0.574-0.166-0.252-0.25-0.556-0.25-0.913 0-0.314 0.062-0.568 0.185-0.763 0.124-0.197 0.289-0.352 0.496-0.463s0.435-0.195 0.684-0.25c0.252-0.057 0.505-0.102 0.759-0.136 0.333-0.043 0.602-0.075 0.809-0.096 0.209-0.024 0.361-0.063 0.456-0.118 0.097-0.055 0.146-0.15 0.146-0.285v-0.029c0-0.352-0.096-0.625-0.289-0.82-0.19-0.195-0.479-0.292-0.866-0.292-0.402 0-0.717 0.088-0.945 0.264s-0.389 0.364-0.481 0.563l-0.799-0.285c0.143-0.333 0.333-0.592 0.57-0.777 0.24-0.188 0.502-0.319 0.784-0.392 0.285-0.076 0.566-0.114 0.841-0.114 0.176 0 0.378 0.021 0.606 0.064 0.231 0.040 0.453 0.125 0.667 0.253 0.216 0.128 0.396 0.322 0.538 0.581s0.214 0.606 0.214 1.041v3.608h-0.841v-0.742h-0.043c-0.057 0.119-0.152 0.246-0.285 0.381s-0.31 0.251-0.531 0.346c-0.221 0.095-0.491 0.143-0.809 0.143zM34.853 18.51c0.333 0 0.613-0.065 0.841-0.196 0.231-0.131 0.404-0.299 0.52-0.506 0.119-0.207 0.178-0.424 0.178-0.652v-0.77c-0.036 0.043-0.114 0.082-0.235 0.118-0.119 0.033-0.257 0.063-0.414 0.089-0.154 0.024-0.305 0.045-0.453 0.064-0.145 0.017-0.263 0.031-0.353 0.043-0.219 0.029-0.423 0.075-0.613 0.139-0.188 0.062-0.34 0.156-0.456 0.282-0.114 0.124-0.171 0.292-0.171 0.506 0 0.292 0.108 0.513 0.324 0.663 0.219 0.147 0.496 0.221 0.831 0.221zM40.995 19.251c-0.513 0-0.955-0.121-1.326-0.364s-0.656-0.576-0.856-1.002c-0.2-0.425-0.299-0.912-0.299-1.458 0-0.556 0.102-1.047 0.307-1.472 0.207-0.428 0.494-0.762 0.863-1.002 0.371-0.242 0.803-0.364 1.298-0.364 0.385 0 0.732 0.071 1.041 0.214s0.562 0.342 0.759 0.599c0.197 0.257 0.32 0.556 0.367 0.898h-0.841c-0.064-0.25-0.207-0.471-0.428-0.663-0.219-0.195-0.513-0.292-0.884-0.292-0.328 0-0.616 0.086-0.863 0.257-0.245 0.169-0.436 0.408-0.574 0.717-0.136 0.307-0.203 0.667-0.203 1.080 0 0.423 0.067 0.791 0.2 1.105 0.135 0.314 0.326 0.557 0.57 0.731 0.247 0.174 0.537 0.26 0.87 0.26 0.219 0 0.417-0.038 0.595-0.114s0.329-0.185 0.453-0.328c0.124-0.143 0.212-0.314 0.264-0.513h0.841c-0.047 0.323-0.165 0.614-0.353 0.873-0.185 0.257-0.431 0.461-0.738 0.613-0.304 0.15-0.658 0.225-1.062 0.225zM44.221 19.137v-0.642l3.109-3.993v-0.057h-3.009v-0.784h4.093v0.67l-3.023 3.964v0.057h3.123v0.784h-4.292zM53.474 15.843v3.294h-0.841v-5.476h0.813v0.856h0.071c0.128-0.278 0.323-0.502 0.585-0.67 0.261-0.171 0.599-0.257 1.013-0.257 0.371 0 0.695 0.076 0.973 0.228 0.278 0.15 0.494 0.378 0.649 0.684 0.154 0.304 0.232 0.689 0.232 1.155v3.48h-0.841v-3.422c0-0.43-0.112-0.765-0.335-1.005-0.223-0.242-0.53-0.364-0.92-0.364-0.269 0-0.509 0.058-0.72 0.175-0.209 0.117-0.374 0.286-0.496 0.51s-0.182 0.494-0.182 0.813zM60.117 19.266c-0.347 0-0.662-0.065-0.945-0.196-0.283-0.133-0.507-0.324-0.674-0.574-0.166-0.252-0.25-0.556-0.25-0.913 0-0.314 0.062-0.568 0.185-0.763 0.124-0.197 0.289-0.352 0.495-0.463s0.435-0.195 0.684-0.25c0.252-0.057 0.505-0.102 0.759-0.136 0.333-0.043 0.602-0.075 0.809-0.096 0.209-0.024 0.361-0.063 0.456-0.118 0.097-0.055 0.146-0.15 0.146-0.285v-0.029c0-0.352-0.096-0.625-0.289-0.82-0.19-0.195-0.479-0.292-0.866-0.292-0.402 0-0.717 0.088-0.945 0.264s-0.389 0.364-0.481 0.563l-0.799-0.285c0.143-0.333 0.333-0.592 0.57-0.777 0.24-0.188 0.501-0.319 0.784-0.392 0.285-0.076 0.566-0.114 0.841-0.114 0.176 0 0.378 0.021 0.606 0.064 0.231 0.040 0.453 0.125 0.667 0.253 0.216 0.128 0.396 0.322 0.538 0.581s0.214 0.606 0.214 1.041v3.608h-0.841v-0.742h-0.043c-0.057 0.119-0.152 0.246-0.285 0.381s-0.31 0.251-0.531 0.346c-0.221 0.095-0.491 0.143-0.809 0.143zM60.245 18.51c0.333 0 0.613-0.065 0.841-0.196 0.231-0.131 0.404-0.299 0.521-0.506 0.119-0.207 0.178-0.424 0.178-0.652v-0.77c-0.036 0.043-0.114 0.082-0.235 0.118-0.119 0.033-0.257 0.063-0.414 0.089-0.154 0.024-0.305 0.045-0.453 0.064-0.145 0.017-0.263 0.031-0.353 0.043-0.219 0.029-0.423 0.075-0.613 0.139-0.188 0.062-0.34 0.156-0.456 0.282-0.114 0.124-0.171 0.292-0.171 0.506 0 0.292 0.108 0.513 0.324 0.663 0.219 0.147 0.495 0.221 0.831 0.221zM68.041 14.888l-0.755 0.214c-0.048-0.126-0.118-0.248-0.21-0.367-0.090-0.121-0.214-0.221-0.371-0.299s-0.358-0.118-0.603-0.118c-0.335 0-0.614 0.077-0.838 0.232-0.221 0.152-0.331 0.346-0.331 0.581 0 0.209 0.076 0.374 0.228 0.496s0.39 0.222 0.713 0.303l0.813 0.2c0.49 0.119 0.855 0.301 1.095 0.546 0.24 0.242 0.36 0.555 0.36 0.938 0 0.314-0.090 0.594-0.27 0.841-0.178 0.247-0.428 0.442-0.749 0.585s-0.694 0.214-1.119 0.214c-0.558 0-1.021-0.121-1.387-0.364s-0.598-0.597-0.695-1.062l0.799-0.2c0.076 0.295 0.22 0.516 0.431 0.663 0.214 0.147 0.493 0.221 0.838 0.221 0.392 0 0.703-0.083 0.934-0.25 0.233-0.169 0.35-0.371 0.35-0.606 0-0.19-0.067-0.349-0.2-0.478-0.133-0.131-0.338-0.228-0.613-0.292l-0.913-0.214c-0.501-0.119-0.87-0.303-1.105-0.553-0.233-0.252-0.35-0.567-0.35-0.945 0-0.309 0.087-0.582 0.26-0.82 0.176-0.238 0.415-0.424 0.717-0.56 0.304-0.136 0.649-0.203 1.033-0.203 0.542 0 0.968 0.119 1.277 0.357 0.311 0.238 0.532 0.551 0.663 0.941zM69.251 19.137v-0.642l3.108-3.993v-0.057h-3.009v-0.784h4.093v0.67l-3.023 3.964v0.057h3.123v0.784h-4.292zM76.978 19.251c-0.528 0-0.983-0.116-1.365-0.349-0.38-0.235-0.674-0.563-0.88-0.984-0.205-0.423-0.307-0.915-0.307-1.476s0.102-1.055 0.307-1.483c0.206-0.43 0.494-0.765 0.863-1.005 0.371-0.242 0.803-0.364 1.298-0.364 0.285 0 0.567 0.047 0.845 0.143s0.531 0.25 0.76 0.463c0.228 0.211 0.41 0.492 0.545 0.841s0.203 0.78 0.203 1.291v0.357h-4.221v-0.727h3.365c0-0.309-0.061-0.585-0.185-0.827-0.121-0.242-0.295-0.434-0.521-0.574-0.223-0.14-0.487-0.21-0.791-0.21-0.335 0-0.625 0.083-0.87 0.25-0.243 0.164-0.429 0.378-0.56 0.642s-0.196 0.547-0.196 0.849v0.485c0 0.414 0.072 0.764 0.214 1.052 0.145 0.285 0.346 0.503 0.602 0.652 0.257 0.147 0.555 0.221 0.895 0.221 0.222 0 0.421-0.031 0.599-0.093 0.181-0.064 0.336-0.159 0.467-0.285 0.13-0.128 0.232-0.288 0.303-0.478l0.813 0.228c-0.086 0.276-0.23 0.518-0.432 0.727-0.202 0.207-0.452 0.368-0.749 0.485-0.297 0.114-0.631 0.171-1.002 0.171zM83.349 19.137v-5.476h0.813v0.827h0.057c0.1-0.271 0.28-0.491 0.542-0.659s0.556-0.253 0.884-0.253c0.061 0 0.139 0.001 0.232 0.004s0.163 0.006 0.21 0.011v0.856c-0.028-0.007-0.094-0.018-0.196-0.032-0.1-0.017-0.206-0.025-0.317-0.025-0.266 0-0.504 0.056-0.713 0.168-0.207 0.109-0.371 0.261-0.492 0.456-0.119 0.193-0.178 0.412-0.178 0.66v3.465h-0.841zM89.213 19.251c-0.528 0-0.983-0.116-1.365-0.349-0.38-0.235-0.674-0.563-0.88-0.984-0.205-0.423-0.307-0.915-0.307-1.476s0.102-1.055 0.307-1.483c0.206-0.43 0.494-0.765 0.863-1.005 0.371-0.242 0.803-0.364 1.298-0.364 0.285 0 0.567 0.047 0.845 0.143s0.531 0.25 0.76 0.463c0.228 0.211 0.41 0.492 0.545 0.841s0.203 0.78 0.203 1.291v0.357h-4.221v-0.727h3.365c0-0.309-0.061-0.585-0.185-0.827-0.121-0.242-0.295-0.434-0.521-0.574-0.223-0.14-0.487-0.21-0.791-0.21-0.335 0-0.625 0.083-0.87 0.25-0.243 0.164-0.429 0.378-0.56 0.642s-0.196 0.547-0.196 0.849v0.485c0 0.414 0.072 0.764 0.214 1.052 0.145 0.285 0.346 0.503 0.602 0.652 0.257 0.147 0.555 0.221 0.895 0.221 0.222 0 0.421-0.031 0.599-0.093 0.181-0.064 0.336-0.159 0.467-0.285 0.13-0.128 0.232-0.288 0.303-0.478l0.813 0.228c-0.086 0.276-0.23 0.518-0.432 0.727-0.202 0.207-0.452 0.368-0.749 0.485-0.297 0.114-0.631 0.171-1.002 0.171zM94.372 19.266c-0.347 0-0.662-0.065-0.945-0.196-0.283-0.133-0.508-0.324-0.674-0.574-0.166-0.252-0.249-0.556-0.249-0.913 0-0.314 0.061-0.568 0.185-0.763 0.124-0.197 0.289-0.352 0.496-0.463s0.435-0.195 0.685-0.25c0.252-0.057 0.505-0.102 0.759-0.136 0.333-0.043 0.602-0.075 0.809-0.096 0.209-0.024 0.361-0.063 0.456-0.118 0.097-0.055 0.146-0.15 0.146-0.285v-0.029c0-0.352-0.096-0.625-0.289-0.82-0.19-0.195-0.479-0.292-0.867-0.292-0.402 0-0.717 0.088-0.945 0.264s-0.388 0.364-0.481 0.563l-0.798-0.285c0.142-0.333 0.333-0.592 0.57-0.777 0.24-0.188 0.501-0.319 0.784-0.392 0.285-0.076 0.565-0.114 0.841-0.114 0.176 0 0.378 0.021 0.606 0.064 0.231 0.040 0.453 0.125 0.667 0.253 0.216 0.128 0.396 0.322 0.538 0.581s0.214 0.606 0.214 1.041v3.608h-0.841v-0.742h-0.043c-0.057 0.119-0.152 0.246-0.285 0.381s-0.31 0.251-0.531 0.346c-0.222 0.095-0.491 0.143-0.809 0.143zM94.5 18.51c0.333 0 0.614-0.065 0.841-0.196 0.231-0.131 0.404-0.299 0.521-0.506 0.119-0.207 0.178-0.424 0.178-0.652v-0.77c-0.036 0.043-0.114 0.082-0.235 0.118-0.119 0.033-0.257 0.063-0.413 0.089-0.154 0.024-0.306 0.045-0.453 0.064-0.145 0.017-0.262 0.031-0.353 0.043-0.219 0.029-0.424 0.075-0.614 0.139-0.188 0.062-0.339 0.156-0.456 0.282-0.114 0.124-0.171 0.292-0.171 0.506 0 0.292 0.109 0.513 0.325 0.663 0.218 0.147 0.495 0.221 0.83 0.221zM99.258 11.836v7.301h-0.841v-7.301h0.841zM100.799 19.137v-5.476h0.841v5.476h-0.841zM101.227 12.749c-0.164 0-0.306-0.056-0.424-0.168-0.117-0.112-0.175-0.246-0.175-0.403s0.058-0.291 0.175-0.403c0.119-0.112 0.26-0.168 0.424-0.168s0.304 0.056 0.42 0.168c0.119 0.112 0.179 0.246 0.179 0.403s-0.060 0.291-0.179 0.403c-0.116 0.112-0.257 0.168-0.42 0.168zM103.025 19.137v-0.642l3.109-3.993v-0.057h-3.009v-0.784h4.093v0.67l-3.023 3.964v0.057h3.123v0.784h-4.292zM110.224 19.266c-0.347 0-0.661-0.065-0.944-0.196-0.283-0.133-0.508-0.324-0.674-0.574-0.166-0.252-0.25-0.556-0.25-0.913 0-0.314 0.062-0.568 0.186-0.763 0.124-0.197 0.289-0.352 0.495-0.463s0.435-0.195 0.685-0.25c0.252-0.057 0.505-0.102 0.76-0.136 0.333-0.043 0.602-0.075 0.809-0.096 0.21-0.024 0.361-0.063 0.457-0.118 0.097-0.055 0.146-0.15 0.146-0.285v-0.029c0-0.352-0.097-0.625-0.289-0.82-0.19-0.195-0.479-0.292-0.866-0.292-0.402 0-0.717 0.088-0.945 0.264s-0.388 0.364-0.481 0.563l-0.799-0.285c0.142-0.333 0.333-0.592 0.57-0.777 0.24-0.188 0.502-0.319 0.784-0.392 0.285-0.076 0.566-0.114 0.841-0.114 0.176 0 0.378 0.021 0.606 0.064 0.231 0.040 0.453 0.125 0.667 0.253 0.216 0.128 0.395 0.322 0.538 0.581s0.213 0.606 0.213 1.041v3.608h-0.841v-0.742h-0.043c-0.057 0.119-0.152 0.246-0.285 0.381s-0.31 0.251-0.531 0.346c-0.221 0.095-0.491 0.143-0.809 0.143zM110.353 18.51c0.333 0 0.613-0.065 0.841-0.196 0.23-0.131 0.404-0.299 0.52-0.506 0.119-0.207 0.179-0.424 0.179-0.652v-0.77c-0.036 0.043-0.114 0.082-0.235 0.118-0.119 0.033-0.257 0.063-0.414 0.089-0.154 0.024-0.305 0.045-0.452 0.064-0.145 0.017-0.263 0.031-0.353 0.043-0.218 0.029-0.423 0.075-0.613 0.139-0.188 0.062-0.34 0.156-0.456 0.282-0.114 0.124-0.171 0.292-0.171 0.506 0 0.292 0.108 0.513 0.324 0.663 0.219 0.147 0.496 0.221 0.831 0.221zM116.494 19.251c-0.513 0-0.955-0.121-1.326-0.364s-0.656-0.576-0.856-1.002-0.299-0.912-0.299-1.458c0-0.556 0.102-1.047 0.306-1.472 0.207-0.428 0.494-0.762 0.863-1.002 0.371-0.242 0.804-0.364 1.298-0.364 0.385 0 0.732 0.071 1.041 0.214s0.562 0.342 0.759 0.599c0.197 0.257 0.319 0.556 0.367 0.898h-0.841c-0.064-0.25-0.206-0.471-0.428-0.663-0.218-0.195-0.513-0.292-0.884-0.292-0.328 0-0.616 0.086-0.863 0.257-0.245 0.169-0.436 0.408-0.573 0.717-0.136 0.307-0.203 0.667-0.203 1.080 0 0.423 0.067 0.791 0.2 1.105 0.136 0.314 0.326 0.557 0.57 0.731 0.247 0.174 0.537 0.26 0.87 0.26 0.219 0 0.417-0.038 0.595-0.114s0.329-0.185 0.453-0.328c0.124-0.143 0.211-0.314 0.264-0.513h0.841c-0.048 0.323-0.165 0.614-0.353 0.873-0.186 0.257-0.432 0.461-0.738 0.613-0.304 0.15-0.659 0.225-1.063 0.225zM119.878 13.661h0.841v5.875c0 0.337-0.058 0.63-0.174 0.877-0.114 0.247-0.287 0.439-0.521 0.574-0.23 0.135-0.521 0.203-0.873 0.203-0.028 0-0.057 0-0.085 0s-0.057 0-0.085 0v-0.784c0.028 0 0.055 0 0.078 0s0.050 0 0.078 0c0.257 0 0.444-0.076 0.563-0.228 0.119-0.15 0.178-0.364 0.178-0.642v-5.875zM120.291 12.749c-0.164 0-0.305-0.056-0.424-0.168-0.116-0.112-0.174-0.246-0.174-0.403s0.058-0.291 0.174-0.403c0.119-0.112 0.26-0.168 0.424-0.168s0.304 0.056 0.421 0.168c0.119 0.112 0.178 0.246 0.178 0.403s-0.060 0.291-0.178 0.403c-0.117 0.112-0.257 0.168-0.421 0.168zM124.556 19.251c-0.528 0-0.983-0.116-1.365-0.349-0.38-0.235-0.674-0.563-0.88-0.984-0.205-0.423-0.307-0.915-0.307-1.476s0.102-1.055 0.307-1.483c0.206-0.43 0.494-0.765 0.863-1.005 0.371-0.242 0.803-0.364 1.298-0.364 0.285 0 0.567 0.047 0.845 0.143s0.531 0.25 0.759 0.463c0.228 0.211 0.41 0.492 0.545 0.841s0.203 0.78 0.203 1.291v0.357h-4.221v-0.727h3.365c0-0.309-0.061-0.585-0.185-0.827-0.121-0.242-0.295-0.434-0.521-0.574-0.223-0.14-0.487-0.21-0.791-0.21-0.335 0-0.625 0.083-0.87 0.25-0.243 0.164-0.429 0.378-0.56 0.642s-0.196 0.547-0.196 0.849v0.485c0 0.414 0.072 0.764 0.214 1.052 0.145 0.285 0.346 0.503 0.602 0.652 0.257 0.147 0.555 0.221 0.895 0.221 0.222 0 0.421-0.031 0.599-0.093 0.181-0.064 0.336-0.159 0.467-0.285 0.131-0.128 0.232-0.288 0.303-0.478l0.813 0.228c-0.086 0.276-0.23 0.518-0.432 0.727-0.202 0.207-0.452 0.368-0.749 0.485-0.297 0.114-0.631 0.171-1.002 0.171z"></path>
<path fill="#1b5b31" style="fill: var(--color3, #1b5b31)" d="M142.431 15.37l-0.562-0.562-4.058 4.064v-8.519h-0.798v8.513l-4.058-4.058-0.562 0.562 5.023 5.023 5.016-5.023z"></path>
</symbol>
<symbol id="icon-Frame-2310" viewBox="0 0 32 32">
<path d="M24.803 16.707c0.391-0.391 0.391-1.024 0-1.414l-6.364-6.364c-0.39-0.391-1.024-0.391-1.414 0s-0.391 1.024 0 1.414l5.657 5.657-5.657 5.657c-0.391 0.391-0.391 1.024 0 1.414s1.024 0.391 1.414 0l6.364-6.364zM7.904 17h16.192v-2h-16.192v2z"></path>
</symbol>
<symbol id="icon-Arrow-1" viewBox="0 0 36 32">
<path d="M1.060 14.586c-0.781 0.781-0.781 2.047 0 2.829l12.728 12.728c0.781 0.781 2.047 0.781 2.828 0s0.781-2.047 0-2.828l-11.314-11.314 11.314-11.314c0.781-0.781 0.781-2.047 0-2.828s-2.047-0.781-2.828 0l-12.728 12.728zM34.859 14h-32.385v4h32.385v-4z"></path>
</symbol>
<symbol id="icon-Icon-01" viewBox="0 0 32 32">
<path d="M13.333 3c-5.707 0-10.333 4.626-10.333 10.333s4.626 10.333 10.333 10.333c2.493 0 4.78-0.883 6.566-2.354l7.394 7.394 0.112 0.097c0.391 0.291 0.947 0.258 1.302-0.097 0.391-0.391 0.391-1.024 0-1.414l-7.394-7.394c1.471-1.785 2.354-4.072 2.354-6.566 0-5.707-4.626-10.333-10.333-10.333zM13.333 5c4.602 0 8.333 3.731 8.333 8.333s-3.731 8.333-8.333 8.333c-4.602 0-8.333-3.731-8.333-8.333s3.731-8.333 8.333-8.333z"></path>
</symbol>
<symbol id="icon-giarddesign" viewBox="0 0 184 32">
<path d="M7.392 31.2c-2.005 0-3.744-0.352-5.216-1.056-1.451-0.683-2.176-1.739-2.176-3.168 0-0.853 0.352-1.611 1.056-2.272 0.725-0.661 1.643-1.205 2.752-1.632 1.109-0.448 2.368-0.843 3.776-1.184 0.277-0.085 0.501-0.139 0.672-0.16l0.608 0.64c-0.939 0.299-1.707 0.608-2.304 0.928s-1.056 0.683-1.376 1.088c-0.32 0.384-0.48 0.811-0.48 1.28 0 0.661 0.299 1.12 0.896 1.376 0.619 0.277 1.429 0.416 2.432 0.416 0.96 0 1.877-0.107 2.752-0.32 0.896-0.213 1.632-0.523 2.208-0.928s0.864-0.885 0.864-1.44c0-0.363-0.16-0.651-0.48-0.864s-0.768-0.32-1.344-0.32c-0.512 0-1.035 0.053-1.568 0.16-0.533 0.085-1.195 0.224-1.984 0.416-0.683 0.192-1.269 0.331-1.76 0.416-0.491 0.107-0.949 0.16-1.376 0.16-0.875 0-1.685-0.149-2.432-0.448-0.725-0.32-1.312-0.747-1.76-1.28-0.427-0.555-0.64-1.184-0.64-1.888 0-0.981 0.491-1.835 1.472-2.56 1.003-0.747 2.379-1.397 4.128-1.952l1.056 0.928c-0.277 0.085-0.533 0.171-0.768 0.256-0.555 0.192-0.971 0.405-1.248 0.64s-0.416 0.555-0.416 0.96c0 0.341 0.139 0.597 0.416 0.768 0.299 0.171 0.672 0.256 1.12 0.256 0.491 0 1.003-0.032 1.536-0.096 0.533-0.085 1.088-0.192 1.664-0.32 0.917-0.171 1.717-0.299 2.4-0.384s1.429-0.128 2.24-0.128c1.429 0 2.613 0.341 3.552 1.024 0.96 0.683 1.44 1.728 1.44 3.136 0 1.621-0.608 2.997-1.824 4.128-1.195 1.152-2.699 2.005-4.512 2.56-1.813 0.576-3.605 0.864-5.376 0.864zM8.736 18.88c-1.515 0-2.859-0.256-4.032-0.768-1.152-0.533-2.059-1.269-2.72-2.208-0.64-0.939-0.96-1.995-0.96-3.168 0-1.152 0.32-2.187 0.96-3.104 0.661-0.939 1.579-1.664 2.752-2.176 1.173-0.533 2.507-0.8 4-0.8 0.917 0 1.653 0.075 2.208 0.224 0.576 0.149 1.195 0.352 1.856 0.608 0.256 0.107 0.491 0.203 0.704 0.288 0.235 0.064 0.459 0.096 0.672 0.096 0.555 0 0.949-0.192 1.184-0.576s0.352-0.885 0.352-1.504l4.032 1.28c-0.021 0.811-0.352 1.44-0.992 1.888-0.619 0.427-1.44 0.64-2.464 0.64-0.256-0.021-0.544-0.043-0.864-0.064 0.683 0.939 1.024 2.005 1.024 3.2 0 1.173-0.331 2.229-0.992 3.168-0.64 0.939-1.547 1.675-2.72 2.208-1.173 0.512-2.507 0.768-4 0.768zM8.736 15.744c0.533 0 1.003-0.128 1.408-0.384s0.715-0.608 0.928-1.056c0.213-0.469 0.32-0.992 0.32-1.568 0-0.853-0.245-1.557-0.736-2.112-0.469-0.555-1.109-0.832-1.92-0.832-0.533 0-1.003 0.128-1.408 0.384s-0.725 0.608-0.96 1.056c-0.213 0.448-0.32 0.949-0.32 1.504 0 0.875 0.245 1.6 0.736 2.176 0.512 0.555 1.163 0.832 1.952 0.832z"></path>
<path d="M20.9 7.104h5.056v13.248c0 1.515 0.075 2.901 0.224 4.16h-5.28v-17.408zM20.836 0.8h5.152v4.448h-5.152v-4.448z"></path>
<path d="M44.292 24.96c-1.365 0-2.432-0.395-3.2-1.184s-1.152-1.941-1.152-3.456v-6.912c0-1.024-0.245-1.792-0.736-2.304-0.469-0.533-1.195-0.8-2.176-0.8-1.024 0-2.016 0.299-2.976 0.896s-1.792 1.472-2.496 2.624l-3.456-2.688c1.216-1.472 2.624-2.581 4.224-3.328 1.621-0.768 3.371-1.152 5.248-1.152 1.749 0 3.168 0.277 4.256 0.832 1.088 0.533 1.888 1.301 2.4 2.304 0.512 0.981 0.768 2.144 0.768 3.488v7.2c0 0.021 0 0.043 0 0.064 0 0 0 0.011 0 0.032 0.021 0.363 0.107 0.629 0.256 0.8s0.363 0.256 0.64 0.256c0.235 0 0.459-0.011 0.672-0.032 0.235-0.043 0.48-0.107 0.736-0.192l-0.64 3.104c-0.363 0.149-0.747 0.256-1.152 0.32-0.405 0.085-0.811 0.128-1.216 0.128zM33.86 24.96c-1.749 0-3.136-0.448-4.16-1.344-1.003-0.917-1.504-2.091-1.504-3.52 0-1.259 0.469-2.379 1.408-3.36 0.939-1.003 2.336-1.813 4.192-2.432s4.139-1.035 6.848-1.248v3.2c-1.643 0.149-2.997 0.363-4.064 0.64-1.045 0.277-1.835 0.629-2.368 1.056-0.512 0.405-0.768 0.896-0.768 1.472 0 0.469 0.171 0.853 0.512 1.152 0.363 0.277 0.853 0.416 1.472 0.416 0.832 0 1.589-0.181 2.272-0.544s1.227-0.875 1.632-1.536c0.405-0.661 0.608-1.44 0.608-2.336l0.992 0.288c0 1.365-0.245 2.667-0.736 3.904-0.491 1.216-1.269 2.219-2.336 3.008-1.045 0.789-2.379 1.184-4 1.184z"></path>
<path d="M48.682 7.104h5.088v4.16c0.683-1.472 1.493-2.603 2.432-3.392 0.939-0.811 1.909-1.216 2.912-1.216 0.597 0 1.131 0.096 1.6 0.288 0.469 0.171 0.939 0.416 1.408 0.736l-2.048 4.448c-0.448-0.299-0.853-0.512-1.216-0.64-0.363-0.149-0.779-0.224-1.248-0.224-0.683 0-1.312 0.203-1.888 0.608-0.576 0.384-1.045 0.971-1.408 1.76s-0.544 1.739-0.544 2.848v3.872c0 1.515 0.075 2.901 0.224 4.16h-5.312v-17.408z"></path>
<path d="M69.762 24.96c-1.664 0-3.115-0.373-4.352-1.12-1.237-0.768-2.197-1.835-2.88-3.2-0.661-1.387-0.992-2.997-0.992-4.832s0.331-3.435 0.992-4.8c0.683-1.387 1.643-2.453 2.88-3.2 1.237-0.768 2.688-1.152 4.352-1.152 1.173 0 2.272 0.299 3.296 0.896s1.856 1.419 2.496 2.464v-8.384h4.446v18.72c0 1.515 0.085 2.901 0.256 4.16h-4.702v-3.040c-0.619 1.088-1.44 1.941-2.464 2.56-1.003 0.619-2.112 0.928-3.328 0.928zM66.882 15.808c0 1.045 0.181 1.973 0.544 2.784 0.363 0.789 0.864 1.408 1.504 1.856 0.64 0.427 1.397 0.64 2.272 0.64 0.789 0 1.515-0.224 2.176-0.672s1.184-1.035 1.568-1.76c0.405-0.747 0.608-1.536 0.608-2.368v-0.96c0-0.875-0.203-1.675-0.608-2.4s-0.949-1.301-1.632-1.728c-0.661-0.448-1.365-0.672-2.112-0.672-0.875 0-1.632 0.224-2.272 0.672-0.64 0.427-1.141 1.045-1.504 1.856-0.363 0.789-0.544 1.707-0.544 2.752z"></path>
<path d="M91.269 24.96c-1.621 0-3.061-0.384-4.32-1.152s-2.24-1.845-2.944-3.232c-0.683-1.387-1.024-2.976-1.024-4.768s0.341-3.381 1.024-4.768c0.704-1.387 1.685-2.464 2.944-3.232s2.699-1.152 4.32-1.152c1.387 0 2.645 0.373 3.776 1.12 1.152 0.725 2.037 1.717 2.656 2.976v-9.12h2.912v18.72c0 1.536 0.053 2.923 0.16 4.16h-3.072v-3.68c-0.597 1.259-1.472 2.261-2.624 3.008-1.131 0.747-2.4 1.12-3.808 1.12zM86.117 15.808c0 1.323 0.245 2.507 0.736 3.552 0.491 1.024 1.173 1.824 2.048 2.4s1.877 0.864 3.008 0.864c1.067 0 2.037-0.277 2.912-0.832 0.896-0.555 1.6-1.28 2.112-2.176 0.512-0.917 0.768-1.92 0.768-3.008v-1.6c0-1.088-0.267-2.091-0.8-3.008-0.512-0.917-1.216-1.643-2.112-2.176-0.875-0.555-1.835-0.832-2.88-0.832-1.131 0-2.133 0.288-3.008 0.864s-1.557 1.387-2.048 2.432c-0.491 1.024-0.736 2.197-0.736 3.52z"></path>
<path d="M112.473 24.96c-1.579 0-3.040-0.331-4.384-0.992s-2.421-1.643-3.232-2.944c-0.789-1.301-1.184-2.88-1.184-4.736s0.373-3.509 1.12-4.96c0.768-1.472 1.813-2.613 3.136-3.424 1.344-0.832 2.869-1.248 4.576-1.248 1.749 0 3.232 0.395 4.448 1.184s2.133 1.909 2.752 3.36c0.64 1.429 0.96 3.104 0.96 5.024h-15.552v-2.272h13.6l-1.056 0.928c0-1.131-0.203-2.144-0.608-3.040-0.405-0.917-1.003-1.632-1.792-2.144-0.768-0.512-1.685-0.768-2.752-0.768-1.152 0-2.165 0.299-3.040 0.896-0.853 0.576-1.525 1.419-2.016 2.528-0.491 1.088-0.736 2.357-0.736 3.808 0 1.472 0.267 2.699 0.8 3.68s1.237 1.707 2.112 2.176c0.875 0.448 1.835 0.672 2.88 0.672 1.515 0 2.773-0.395 3.776-1.184 1.024-0.789 1.76-1.781 2.208-2.976l2.432 1.696c-1.003 1.536-2.219 2.709-3.648 3.52s-3.029 1.216-4.8 1.216z"></path>
<path d="M130.924 24.96c-1.813 0-3.509-0.395-5.088-1.184-1.557-0.811-2.805-1.92-3.744-3.328l2.176-1.792c0.597 1.301 1.493 2.315 2.688 3.040 1.216 0.725 2.56 1.088 4.032 1.088 0.768 0 1.451-0.107 2.048-0.32 0.597-0.235 1.067-0.555 1.408-0.96 0.341-0.427 0.512-0.928 0.512-1.504 0-0.619-0.224-1.131-0.672-1.536-0.448-0.427-1.003-0.757-1.664-0.992-0.64-0.256-1.536-0.533-2.688-0.832-1.429-0.384-2.592-0.747-3.488-1.088-0.875-0.363-1.632-0.875-2.272-1.536-0.619-0.661-0.928-1.536-0.928-2.624 0-0.917 0.267-1.739 0.8-2.464s1.291-1.28 2.272-1.664c0.981-0.405 2.091-0.608 3.328-0.608 1.557 0 2.997 0.267 4.32 0.8 1.344 0.533 2.528 1.483 3.552 2.848l-2.176 1.792c-0.512-1.067-1.291-1.877-2.336-2.432s-2.176-0.832-3.392-0.832c-1.045 0-1.899 0.213-2.56 0.64-0.64 0.405-0.96 0.949-0.96 1.632 0 0.555 0.203 1.013 0.608 1.376 0.427 0.363 0.949 0.661 1.568 0.896 0.619 0.213 1.461 0.459 2.528 0.736 1.493 0.405 2.699 0.789 3.616 1.152 0.939 0.363 1.739 0.907 2.4 1.632 0.683 0.704 1.024 1.643 1.024 2.816 0 1.067-0.309 2.005-0.928 2.816-0.619 0.789-1.451 1.397-2.496 1.824-1.024 0.405-2.187 0.608-3.488 0.608z"></path>
<path d="M140.537 7.104h2.912v13.248c0 1.536 0.053 2.923 0.16 4.16h-3.072v-17.408zM140.345 1.376h3.296v3.104h-3.296v-3.104z"></path>
<path d="M152.469 31.2c-1.792 0-3.328-0.363-4.608-1.088s-1.92-1.792-1.92-3.2c0-0.789 0.277-1.493 0.832-2.112s1.301-1.141 2.24-1.568c0.939-0.448 2.059-0.832 3.36-1.152 0.256-0.064 0.48-0.117 0.672-0.16l0.384 0.512c-0.981 0.32-1.803 0.661-2.464 1.024-0.661 0.341-1.184 0.747-1.568 1.216s-0.576 1.024-0.576 1.664c0 0.896 0.395 1.557 1.184 1.984 0.811 0.427 1.813 0.64 3.008 0.64 1.28 0 2.528-0.192 3.744-0.576 1.237-0.384 2.24-0.928 3.008-1.632 0.768-0.683 1.152-1.472 1.152-2.368 0-0.619-0.213-1.099-0.64-1.44-0.426-0.363-1.045-0.544-1.856-0.544-0.512 0-1.067 0.064-1.664 0.192-0.576 0.107-1.365 0.288-2.368 0.544-0.832 0.235-1.525 0.416-2.080 0.544-0.555 0.107-1.045 0.16-1.472 0.16-0.768 0-1.483-0.107-2.144-0.32-0.64-0.235-1.163-0.565-1.568-0.992-0.384-0.448-0.576-0.971-0.576-1.568 0-0.896 0.448-1.685 1.344-2.368 0.896-0.704 2.101-1.259 3.616-1.664l0.608 0.8c-0.448 0.128-0.821 0.267-1.12 0.416-0.64 0.256-1.109 0.555-1.408 0.896-0.299 0.32-0.448 0.672-0.448 1.056 0 0.427 0.192 0.725 0.576 0.896s0.885 0.256 1.504 0.256c0.533 0 1.088-0.053 1.664-0.16 0.576-0.128 1.237-0.288 1.984-0.48 0.896-0.235 1.664-0.405 2.304-0.512 0.661-0.128 1.344-0.192 2.048-0.192 1.451 0 2.614 0.341 3.488 1.024 0.875 0.683 1.312 1.675 1.312 2.976 0 1.472-0.576 2.763-1.728 3.872-1.13 1.109-2.592 1.952-4.384 2.528-1.771 0.597-3.584 0.896-5.44 0.896zM154.197 18.688c-1.365 0-2.571-0.256-3.616-0.768-1.045-0.533-1.867-1.259-2.464-2.176-0.576-0.917-0.864-1.941-0.864-3.072s0.288-2.155 0.864-3.072c0.597-0.917 1.419-1.632 2.464-2.144 1.067-0.533 2.272-0.8 3.616-0.8 0.917 0 1.675 0.096 2.272 0.288s1.227 0.448 1.888 0.768c0.363 0.192 0.672 0.341 0.928 0.448 0.256 0.085 0.523 0.128 0.8 0.128 0.64 0 1.099-0.192 1.376-0.576 0.299-0.405 0.448-0.928 0.448-1.568l2.432 0.832c-0.021 0.853-0.352 1.504-0.992 1.952s-1.386 0.672-2.24 0.672c-0.213 0-0.501-0.021-0.864-0.064 0.619 0.896 0.928 1.941 0.928 3.136 0 1.131-0.288 2.155-0.864 3.072s-1.397 1.643-2.464 2.176c-1.067 0.512-2.283 0.768-3.648 0.768zM154.197 16.736c0.832 0 1.547-0.171 2.144-0.512 0.597-0.363 1.056-0.853 1.376-1.472 0.32-0.64 0.48-1.333 0.48-2.080 0-1.152-0.363-2.112-1.088-2.88-0.704-0.789-1.675-1.184-2.912-1.184-0.811 0-1.525 0.181-2.144 0.544-0.597 0.363-1.056 0.853-1.376 1.472-0.299 0.597-0.448 1.28-0.448 2.048 0 1.173 0.352 2.144 1.056 2.912 0.725 0.768 1.696 1.152 2.912 1.152z"></path>
<path d="M166.413 7.104h2.912v5.056c0.426-1.088 1.034-2.048 1.824-2.88 0.789-0.832 1.685-1.472 2.688-1.92 1.002-0.469 2.026-0.704 3.072-0.704 1.301 0 2.389 0.256 3.264 0.768 0.896 0.491 1.557 1.173 1.984 2.048 0.448 0.875 0.672 1.888 0.672 3.040v7.84c0 1.536 0.053 2.923 0.16 4.16h-3.072v-11.552c0-1.28-0.32-2.251-0.96-2.912-0.619-0.661-1.611-0.992-2.976-0.992-1.003 0-2.027 0.309-3.072 0.928-1.024 0.619-1.878 1.493-2.56 2.624-0.683 1.109-1.024 2.4-1.024 3.872v8.032h-2.912v-17.408z"></path>
<symbol id="icon-Icon-3" viewBox="0 0 32 32">
<path d="M5.68 12.838c-0.463-0.463-0.463-1.213 0-1.676 0.421-0.421 1.079-0.459 1.543-0.115l0.133 0.115 8.643 8.643 8.643-8.643c0.421-0.421 1.079-0.459 1.543-0.115l0.133 0.115c0.421 0.421 0.459 1.079 0.115 1.543l-0.115 0.133-9.482 9.482c-0.421 0.421-1.079 0.459-1.543 0.115l-0.133-0.115-9.482-9.482z"></path>
</symbol>
</symbol>
</defs>
</svg>
